<svg width="1387" height="197" viewBox="0 0 1387 197" fill="none" xmlns="http://www.w3.org/2000/svg">
<path fill-rule="evenodd" clip-rule="evenodd" d="M89.9169 1.04689C82.424 2.68392 78.4827 4.02645 72.754 6.89053C45.1069 20.7143 31.7237 52.8139 41.1454 82.7077C42.4505 86.845 45.2629 93.4769 46.1493 94.5018C46.233 94.5971 48.6383 93.6761 51.4939 92.4519C56.9223 90.1306 68.4402 86.1434 71.856 85.4043C73.7213 85.003 74.0649 85.2513 77.4692 89.4637L81.0958 93.9532L78.3672 94.6433C76.8657 95.0215 71.4576 96.6499 66.3468 98.2638C36.0173 107.829 8.18546 123.35 1.78693 134.27C-0.497021 138.17 -0.598083 143.087 1.52128 147.184C7.7408 159.189 40.181 179.65 70.19 190.5C84.1218 195.536 98.0045 198.021 104.319 196.607C108.682 195.631 113.371 192.723 114.688 190.18C116.065 187.518 115.947 183.32 114.431 180.863C111.844 176.679 107.397 174.22 90.0555 167.386C61.675 156.198 51.1936 148.818 53.5527 141.678C55.9059 134.544 73.1756 127.958 101.267 123.477C105.85 122.747 112.338 121.705 115.684 121.162C127.557 119.239 133.941 117.186 134.608 115.082C135.743 111.501 130.436 109.047 116.143 106.538L113.718 106.111L116.464 102.97C119.776 99.179 120.238 99.1328 129.189 101.65C153.024 108.357 163.852 115.105 161.167 121.581C159.354 125.958 149.938 129.122 122.747 134.486C112.006 136.605 101.747 138.892 99.9449 139.565C92.7061 142.273 92.0911 146.101 98.3972 149.214C100.329 150.167 107.53 152.416 114.402 154.211C138.561 160.52 147.408 164.086 153.14 169.814C155.06 171.737 156.821 174.061 157.052 174.982C157.304 175.981 157.921 176.656 158.586 176.656C160.471 176.656 179.355 166.808 185.979 162.368C200.531 152.618 205.694 145.198 203.525 137.145C201.657 130.205 188.693 120.166 168.868 110.309C155.372 103.599 134.949 95.7837 127.072 94.3141L124.681 93.8666L126.789 91.2133C127.95 89.7524 129.394 87.7631 130 86.7902C130.91 85.3264 131.403 85.0925 132.844 85.4361C137.271 86.4899 148.09 90.2923 152.614 92.3826L157.613 94.6924L158.724 93.2286C160.205 91.2682 163.506 82.5143 164.707 77.3462C166.151 71.1446 166.621 59.9337 165.703 53.6425C164.776 47.3052 161.588 38.0229 158.349 32.2341C150.125 17.5269 135.067 6.08501 118.248 1.76002C110.36 -0.269661 97.4328 -0.593025 89.9169 1.04689ZM95.5011 26.7976C83.3306 29.2632 72.1823 40.2229 69.6298 52.2307C66.5316 66.8138 72.1044 79.4019 89.0449 96.0927C92.8938 99.8864 97.5801 104.174 99.4569 105.623L102.87 108.256L105.913 105.782C116.195 97.4323 127.661 84.6132 131.38 77.3087C137.118 66.0401 137.294 54.425 131.886 43.7569C129.939 39.9198 123.446 32.9761 119.799 30.8339C113.374 27.0661 102.829 25.3136 95.5011 26.7976ZM97.4184 48.3936C94.0863 49.9527 90.8726 53.6512 90.3269 56.5499C89.1979 62.5668 91.8341 68.6327 96.6619 71.1273C99.6186 72.6546 105.093 72.7614 107.83 71.3467C112.349 69.0081 115.58 62.9537 114.815 58.2476C113.507 50.1808 104.495 45.0792 97.4184 48.3936Z" fill="#2C9B86"/>
<path d="M253.454 147V50.4H271.946L313.07 118.572H303.272L343.706 50.4H362.06L362.336 147H341.36L341.222 82.554H345.086L312.794 136.788H302.72L269.738 82.554H274.43V147H253.454ZM383.737 147V72.756H405.265V147H383.737ZM394.501 62.406C390.545 62.406 387.325 61.256 384.841 58.956C382.357 56.656 381.115 53.804 381.115 50.4C381.115 46.996 382.357 44.144 384.841 41.844C387.325 39.544 390.545 38.394 394.501 38.394C398.457 38.394 401.677 39.498 404.161 41.706C406.645 43.822 407.887 46.582 407.887 49.986C407.887 53.574 406.645 56.564 404.161 58.956C401.769 61.256 398.549 62.406 394.501 62.406ZM455.605 148.104C446.865 148.104 440.057 145.896 435.181 141.48C430.305 136.972 427.867 130.302 427.867 121.47V56.334H449.395V121.194C449.395 124.322 450.223 126.76 451.879 128.508C453.535 130.164 455.789 130.992 458.641 130.992C462.045 130.992 464.943 130.072 467.335 128.232L473.131 143.412C470.923 144.976 468.255 146.172 465.127 147C462.091 147.736 458.917 148.104 455.605 148.104ZM416.413 90.972V74.412H467.887V90.972H416.413ZM485.215 147V72.756H505.777V93.732L502.879 87.66C505.087 82.416 508.629 78.46 513.505 75.792C518.381 73.032 524.315 71.652 531.307 71.652V91.524C530.387 91.432 529.559 91.386 528.823 91.386C528.087 91.294 527.305 91.248 526.477 91.248C520.589 91.248 515.805 92.95 512.125 96.354C508.537 99.666 506.743 104.864 506.743 111.948V147H485.215ZM584.796 147V132.51L583.416 129.336V103.392C583.416 98.792 581.99 95.204 579.138 92.628C576.378 90.052 572.1 88.764 566.304 88.764C562.348 88.764 558.438 89.408 554.574 90.696C550.802 91.892 547.582 93.548 544.914 95.664L537.186 80.622C541.234 77.77 546.11 75.562 551.814 73.998C557.518 72.434 563.314 71.652 569.202 71.652C580.518 71.652 589.304 74.32 595.56 79.656C601.816 84.992 604.944 93.318 604.944 104.634V147H584.796ZM562.164 148.104C556.368 148.104 551.4 147.138 547.26 145.206C543.12 143.182 539.946 140.468 537.738 137.064C535.53 133.66 534.426 129.842 534.426 125.61C534.426 121.194 535.484 117.33 537.6 114.018C539.808 110.706 543.258 108.13 547.95 106.29C552.642 104.358 558.76 103.392 566.304 103.392H586.038V115.95H568.65C563.59 115.95 560.094 116.778 558.162 118.434C556.322 120.09 555.402 122.16 555.402 124.644C555.402 127.404 556.46 129.612 558.576 131.268C560.784 132.832 563.774 133.614 567.546 133.614C571.134 133.614 574.354 132.786 577.206 131.13C580.058 129.382 582.128 126.852 583.416 123.54L586.728 133.476C585.164 138.26 582.312 141.894 578.172 144.378C574.032 146.862 568.696 148.104 562.164 148.104Z" fill="#2C9B86"/>
<path d="M665.028 147V50.4H706.842C715.49 50.4 722.942 51.826 729.198 54.678C735.454 57.438 740.284 61.44 743.688 66.684C747.092 71.928 748.794 78.184 748.794 85.452C748.794 92.628 747.092 98.838 743.688 104.082C740.284 109.326 735.454 113.374 729.198 116.226C722.942 118.986 715.49 120.366 706.842 120.366H677.448L687.384 110.292V147H665.028ZM687.384 112.776L677.448 102.15H705.6C712.5 102.15 717.652 100.678 721.056 97.734C724.46 94.79 726.162 90.696 726.162 85.452C726.162 80.116 724.46 75.976 721.056 73.032C717.652 70.088 712.5 68.616 705.6 68.616H677.448L687.384 57.99V112.776ZM799.948 148.104C791.484 148.104 784.032 146.448 777.592 143.136C771.244 139.824 766.322 135.316 762.826 129.612C759.33 123.816 757.582 117.238 757.582 109.878C757.582 102.426 759.284 95.848 762.688 90.144C766.184 84.348 770.922 79.84 776.902 76.62C782.882 73.308 789.644 71.652 797.188 71.652C804.456 71.652 810.988 73.216 816.784 76.344C822.672 79.38 827.318 83.796 830.722 89.592C834.126 95.296 835.828 102.15 835.828 110.154C835.828 110.982 835.782 111.948 835.69 113.052C835.598 114.064 835.506 115.03 835.414 115.95H775.108V103.392H824.098L815.818 107.118C815.818 103.254 815.036 99.896 813.472 97.044C811.908 94.192 809.746 91.984 806.986 90.42C804.226 88.764 801.006 87.936 797.326 87.936C793.646 87.936 790.38 88.764 787.528 90.42C784.768 91.984 782.606 94.238 781.042 97.182C779.478 100.034 778.696 103.438 778.696 107.394V110.706C778.696 114.754 779.57 118.342 781.318 121.47C783.158 124.506 785.688 126.852 788.908 128.508C792.22 130.072 796.084 130.854 800.5 130.854C804.456 130.854 807.906 130.256 810.85 129.06C813.886 127.864 816.646 126.07 819.13 123.678L830.584 136.098C827.18 139.962 822.902 142.952 817.75 145.068C812.598 147.092 806.664 148.104 799.948 148.104ZM880.521 148.104C871.781 148.104 864.973 145.896 860.097 141.48C855.221 136.972 852.783 130.302 852.783 121.47V56.334H874.311V121.194C874.311 124.322 875.139 126.76 876.795 128.508C878.451 130.164 880.705 130.992 883.557 130.992C886.961 130.992 889.859 130.072 892.251 128.232L898.047 143.412C895.839 144.976 893.171 146.172 890.043 147C887.007 147.736 883.833 148.104 880.521 148.104ZM841.329 90.972V74.412H892.803V90.972H841.329ZM941.457 148.104C935.293 148.104 929.773 146.908 924.897 144.516C920.113 142.124 916.387 138.49 913.719 133.614C911.051 128.646 909.717 122.344 909.717 114.708V72.756H931.245V111.534C931.245 117.698 932.533 122.252 935.109 125.196C937.777 128.048 941.503 129.474 946.287 129.474C949.599 129.474 952.543 128.784 955.119 127.404C957.695 125.932 959.719 123.724 961.191 120.78C962.663 117.744 963.399 113.972 963.399 109.464V72.756H984.927V147H964.503V126.576L968.229 132.51C965.745 137.662 962.065 141.572 957.189 144.24C952.405 146.816 947.161 148.104 941.457 148.104ZM1050.41 147V132.51L1049.03 129.336V103.392C1049.03 98.792 1047.61 95.204 1044.75 92.628C1041.99 90.052 1037.72 88.764 1031.92 88.764C1027.96 88.764 1024.05 89.408 1020.19 90.696C1016.42 91.892 1013.2 93.548 1010.53 95.664L1002.8 80.622C1006.85 77.77 1011.73 75.562 1017.43 73.998C1023.13 72.434 1028.93 71.652 1034.82 71.652C1046.13 71.652 1054.92 74.32 1061.18 79.656C1067.43 84.992 1070.56 93.318 1070.56 104.634V147H1050.41ZM1027.78 148.104C1021.98 148.104 1017.02 147.138 1012.88 145.206C1008.74 143.182 1005.56 140.468 1003.35 137.064C1001.15 133.66 1000.04 129.842 1000.04 125.61C1000.04 121.194 1001.1 117.33 1003.22 114.018C1005.42 110.706 1008.87 108.13 1013.57 106.29C1018.26 104.358 1024.38 103.392 1031.92 103.392H1051.65V115.95H1034.27C1029.21 115.95 1025.71 116.778 1023.78 118.434C1021.94 120.09 1021.02 122.16 1021.02 124.644C1021.02 127.404 1022.08 129.612 1024.19 131.268C1026.4 132.832 1029.39 133.614 1033.16 133.614C1036.75 133.614 1039.97 132.786 1042.82 131.13C1045.67 129.382 1047.74 126.852 1049.03 123.54L1052.34 133.476C1050.78 138.26 1047.93 141.894 1043.79 144.378C1039.65 146.862 1034.31 148.104 1027.78 148.104ZM1090.04 147V44.604H1111.57V147H1090.04ZM1166.88 148.104C1158.97 148.104 1151.93 146.448 1145.77 143.136C1139.69 139.824 1134.86 135.316 1131.28 129.612C1127.78 123.816 1126.03 117.238 1126.03 109.878C1126.03 102.426 1127.78 95.848 1131.28 90.144C1134.86 84.348 1139.69 79.84 1145.77 76.62C1151.93 73.308 1158.97 71.652 1166.88 71.652C1174.7 71.652 1181.69 73.308 1187.86 76.62C1194.02 79.84 1198.85 84.302 1202.35 90.006C1205.84 95.71 1207.59 102.334 1207.59 109.878C1207.59 117.238 1205.84 123.816 1202.35 129.612C1198.85 135.316 1194.02 139.824 1187.86 143.136C1181.69 146.448 1174.7 148.104 1166.88 148.104ZM1166.88 130.44C1170.47 130.44 1173.69 129.612 1176.54 127.956C1179.39 126.3 1181.65 123.954 1183.3 120.918C1184.96 117.79 1185.79 114.11 1185.79 109.878C1185.79 105.554 1184.96 101.874 1183.3 98.838C1181.65 95.802 1179.39 93.456 1176.54 91.8C1173.69 90.144 1170.47 89.316 1166.88 89.316C1163.29 89.316 1160.07 90.144 1157.22 91.8C1154.37 93.456 1152.07 95.802 1150.32 98.838C1148.66 101.874 1147.84 105.554 1147.84 109.878C1147.84 114.11 1148.66 117.79 1150.32 120.918C1152.07 123.954 1154.37 126.3 1157.22 127.956C1160.07 129.612 1163.29 130.44 1166.88 130.44ZM1239.78 131.82L1240.33 105.6L1274.97 72.756H1300.64L1267.38 106.566L1256.2 115.674L1239.78 131.82ZM1221.98 147V44.604H1243.51V147H1221.98ZM1277.32 147L1252.2 115.812L1265.72 99.114L1303.4 147H1277.32ZM1357.27 147V132.51L1355.89 129.336V103.392C1355.89 98.792 1354.47 95.204 1351.61 92.628C1348.85 90.052 1344.58 88.764 1338.78 88.764C1334.82 88.764 1330.91 89.408 1327.05 90.696C1323.28 91.892 1320.06 93.548 1317.39 95.664L1309.66 80.622C1313.71 77.77 1318.59 75.562 1324.29 73.998C1329.99 72.434 1335.79 71.652 1341.68 71.652C1352.99 71.652 1361.78 74.32 1368.04 79.656C1374.29 84.992 1377.42 93.318 1377.42 104.634V147H1357.27ZM1334.64 148.104C1328.84 148.104 1323.88 147.138 1319.74 145.206C1315.6 143.182 1312.42 140.468 1310.21 137.064C1308.01 133.66 1306.9 129.842 1306.9 125.61C1306.9 121.194 1307.96 117.33 1310.08 114.018C1312.28 110.706 1315.73 108.13 1320.43 106.29C1325.12 104.358 1331.24 103.392 1338.78 103.392H1358.51V115.95H1341.13C1336.07 115.95 1332.57 116.778 1330.64 118.434C1328.8 120.09 1327.88 122.16 1327.88 124.644C1327.88 127.404 1328.94 129.612 1331.05 131.268C1333.26 132.832 1336.25 133.614 1340.02 133.614C1343.61 133.614 1346.83 132.786 1349.68 131.13C1352.53 129.382 1354.6 126.852 1355.89 123.54L1359.2 133.476C1357.64 138.26 1354.79 141.894 1350.65 144.378C1346.51 146.862 1341.17 148.104 1334.64 148.104Z" fill="#2C9B86"/>
</svg>
