<svg width="368" height="356" viewBox="0 0 368 356" fill="none" xmlns="http://www.w3.org/2000/svg">
<path fill-rule="evenodd" clip-rule="evenodd" d="M162.192 1.88854C148.676 4.84167 141.567 7.26354 131.234 12.4302C81.3639 37.3677 57.2233 95.274 74.218 149.201C76.5722 156.665 81.6452 168.628 83.2441 170.477C83.3952 170.649 87.7337 168.988 92.8847 166.779C102.676 162.592 123.452 155.399 129.614 154.066C132.978 153.342 133.598 153.79 139.739 161.389L146.281 169.488L141.359 170.732C138.65 171.415 128.895 174.352 119.676 177.264C64.9681 194.519 14.7649 222.519 3.22327 242.217C-0.896527 249.253 -1.07882 258.123 2.74409 265.514C13.9628 287.17 72.4785 324.081 126.609 343.654C151.739 352.738 176.781 357.222 188.171 354.67C196.041 352.909 204.499 347.665 206.874 343.076C209.359 338.274 209.145 330.701 206.411 326.269C201.744 318.722 193.723 314.284 162.442 301.956C111.249 281.774 92.3431 268.461 96.5983 255.581C100.843 242.711 131.994 230.831 182.666 222.748C190.932 221.43 202.635 219.55 208.671 218.571C230.088 215.102 241.603 211.399 242.807 207.602C244.853 201.144 235.281 196.717 209.499 192.191L205.124 191.42L210.077 185.753C216.051 178.915 216.885 178.831 233.031 183.373C276.025 195.472 295.557 207.644 290.713 219.326C287.442 227.222 270.458 232.93 221.411 242.607C202.036 246.43 183.531 250.555 180.281 251.769C167.223 256.654 166.114 263.56 177.489 269.175C180.973 270.894 193.963 274.951 206.359 278.191C249.937 289.571 265.895 296.003 276.234 306.336C279.697 309.805 282.874 313.998 283.291 315.659C283.744 317.461 284.859 318.68 286.057 318.68C289.458 318.68 323.52 300.915 335.468 292.904C361.718 275.316 371.031 261.93 367.119 247.404C363.749 234.883 340.364 216.774 304.603 198.993C280.26 186.889 243.421 172.79 229.213 170.139L224.9 169.331L228.702 164.545C230.796 161.909 233.4 158.321 234.494 156.566C236.135 153.925 237.025 153.503 239.624 154.123C247.609 156.024 267.124 162.883 275.286 166.654L284.301 170.821L286.307 168.18C288.978 164.644 294.932 148.852 297.098 139.529C299.702 128.342 300.551 108.118 298.895 96.7688C297.223 85.3365 291.473 68.5917 285.63 58.149C270.796 31.6177 243.635 10.9771 213.296 3.175C199.067 -0.486457 175.749 -1.06979 162.192 1.88854ZM172.265 48.3417C150.312 52.7896 130.202 72.5604 125.598 94.2219C120.01 120.529 130.062 143.238 160.619 173.347C167.562 180.191 176.015 187.925 179.4 190.54L185.557 195.29L191.046 190.826C209.593 175.764 230.275 152.639 236.984 139.461C247.333 119.133 247.65 98.1802 237.895 78.9354C234.385 72.0135 222.671 59.4875 216.093 55.6229C204.505 48.826 185.484 45.6646 172.265 48.3417ZM175.723 87.3C169.713 90.1125 163.916 96.7844 162.932 102.014C160.895 112.868 165.65 123.81 174.359 128.31C179.692 131.066 189.567 131.258 194.505 128.706C202.656 124.488 208.484 113.566 207.103 105.076C204.744 90.524 188.489 81.3208 175.723 87.3Z" fill="#2C9B86"/>
</svg>
