<svg xmlns="http://www.w3.org/2000/svg" fill-rule="evenodd" stroke-linejoin="round" stroke-miterlimit="2" clip-rule="evenodd" viewBox="0 0 3000 3000"><path fill="none" d="M0 0h3000v3000H0z"/><path fill="#c3d9fa" d="M257.574 2491.01h2484.85v20H257.574z"/><path fill="#5090ef" d="M331.438 1676.06h640.096v534.43H331.438z"/><path fill="#9dc9fc" d="M331.438 1726.03h640.096v116.475H331.438z"/><path fill="#84b6f8" d="M331.438 1675.83h640.096v44.016H331.438zM404.843 2375.85l26.865-169.262h-60.003v169.262h33.138Zm493.285 0-26.865-169.262h60.004v169.262h-33.139Z"/><path fill="#649ef3" d="m426.763 2237.74 4.945-31.155h-60.003v31.155h55.058Zm504.504 0h-55.059l-4.945-31.155h60.004v31.155Z"/><path fill="#cde4ff" d="M319.107 1675.83h664.757v28.836H319.107z"/><path fill="#9dc9fc" d="M331.438 1848.69h640.096v116.475H331.438zM331.438 1971.35h640.096v116.475H331.438zM331.438 2094.01h640.096v116.475H331.438z"/><path fill="#84b6f8" d="M583.797 1528.29h-48.848c-13.256-8.458 35.585-159.482 48.318-140.544 12.881 19.159.53 140.544.53 140.544Z"/><path fill="#9dc9fc" d="M414.297 1528.29h48.848c13.302-8.458-34.723-159.482-47.558-140.544-12.985 19.159-1.29 140.544-1.29 140.544Z"/><path fill="#84b6f8" d="M473.995 1528.29h48.848c13.773-12.29-16.637-232.876-30.526-205.358-14.052 27.84-18.322 205.358-18.322 205.358Z"/><path fill="#9dc9fc" d="M558.677 1528.29h-48.848c-13.773-11.698 25.84-220.573 39.73-194.38 14.051 26.498 9.118 194.38 9.118 194.38Z"/><path fill="#cde4ff" d="M589.595 1536.09h-48.848c-13.774-5.355 25.84-100.963 39.729-88.974 14.052 12.129 9.119 88.974 9.119 88.974ZM440.186 1528.29h48.848c13.773-10.311-25.84-194.422-39.73-171.334-14.051 23.356-9.118 171.334-9.118 171.334Z"/><path fill="#5090ef" d="M598.547 1504.95H401.262v81.123c0 8.619 16.488 90.211 36.826 90.211H561.72c20.339 0 36.827-81.592 36.827-90.211v-81.123Z"/><path fill="#9dc9fc" d="M605 1537.91a4.843 4.843 0 0 0-4.84-4.84H398.357a4.843 4.843 0 0 0-4.841 4.84 4.843 4.843 0 0 0 4.841 4.84H600.16a4.843 4.843 0 0 0 4.84-4.84ZM605 1552.64a4.843 4.843 0 0 0-4.84-4.84H398.357a4.843 4.843 0 0 0-4.841 4.84 4.842 4.842 0 0 0 4.841 4.84H600.16a4.842 4.842 0 0 0 4.84-4.84ZM1832.22 488.99h688.314c88.205 0 160.359 72.166 160.359 160.358v1682.58c0 88.192-72.154 160.352-160.359 160.352H1832.22c-88.199 0-160.359-72.16-160.359-160.352V649.348c0-88.192 72.16-160.358 160.359-160.358Z"/><path fill="#ebf3ff" d="M2327.8 539.348a24.57 24.57 0 0 1 24.531-25.977c49.167-.034 154.458-.034 154.458-.034 84.681 0 153.952 70.412 153.952 156.46v1641.68c0 86.048-69.271 156.454-153.952 156.454h-660.82c-84.675 0-153.953-70.406-153.953-156.454V669.797c0-86.048 69.278-156.46 153.953-156.46h154.458a24.604 24.604 0 0 1 24.566 26.013 9971.123 9971.123 0 0 0-.132 35.362c0 15.77 12.803 28.573 28.574 28.573h245.888c15.771 0 28.574-12.803 28.574-28.573 0 0-.033-18.629-.097-35.364Z"/><path fill="#fff" d="M2343.16 678.19c0-30.738-24.955-55.692-55.693-55.692H1484.97c-30.737 0-55.692 24.954-55.692 55.692v259.898c0 30.737 24.955 55.692 55.692 55.692h802.497c30.738 0 55.693-24.955 55.693-55.692V678.19Z"/><path fill="#c3d9fa" d="M2286.79 854.691c0-7.847-4.421-14.217-9.868-14.217h-433.321c-5.446 0-9.868 6.37-9.868 14.217s4.422 14.218 9.868 14.218h433.321c5.447 0 9.868-6.371 9.868-14.218Zm-155.244-93.105c0-7.846-4.422-14.217-9.868-14.217h-278.077c-5.446 0-9.868 6.371-9.868 14.217 0 7.847 4.422 14.218 9.868 14.218h278.077c5.446 0 9.868-6.371 9.868-14.218Z"/><ellipse cx="1640.01" cy="808.139" fill="#ebf3ff" rx="154.362" ry="154.35"/><path fill="#84b6f8" d="M1640.01 729.082c67.705 0 122.592 68.22 122.592 135.926 0 67.705-54.887 109.258-122.592 109.258-67.706 0-122.592-41.553-122.592-109.258s54.886-135.926 122.592-135.926Z"/><path fill="#cde4ff" d="M1640.01 729.082c67.705 0 122.592 68.22 122.592 135.925 0 21.962-5.78 41.168-15.895 57.101-22.405 20.853-54.538 32.412-90.242 32.412-67.705 0-122.592-41.553-122.592-109.259 0-28.542 9.755-57.173 26.111-80.75 21.476-21.506 49.442-35.429 80.026-35.429Z"/><path fill="#9dc9fc" d="M1762.16 854.45c.291 3.515.448 7.036.448 10.558 0 21.961-5.779 41.168-15.894 57.102-22.406 20.852-54.538 32.41-90.243 32.41-66.99 0-121.424-40.683-122.565-107.127 71.129 16.861 132.533-8.204 228.254 7.057Z"/><path fill="#84b6f8" d="M1641.66 646.806a3.878 3.878 0 0 1 3.866 3.865v253.15a3.876 3.876 0 0 1-3.865 3.864h-.001a3.877 3.877 0 0 1-3.866-3.864V650.672a3.879 3.879 0 0 1 3.866-3.866Z"/><path fill="#cde4ff" d="M1617.79 642.012h47.729c3.487 0 6.34 2.852 6.34 6.34v39.978c0 3.488-2.853 6.34-6.34 6.34h-47.729c-3.488 0-6.34-2.852-6.34-6.34v-39.978c0-3.488 2.852-6.34 6.34-6.34Z"/><path fill="#9dc9fc" d="M1608.2 688.203h66.924c3.475 0 6.316 2.841 6.316 6.316v39.83c0 3.475-2.842 6.316-6.316 6.316H1608.2c-3.475 0-6.316-2.841-6.316-6.316v-39.83c-.001-3.475 2.841-6.316 6.316-6.316Z"/><path fill="#84b6f8" d="M1609.42 693.441a2.97 2.97 0 0 1 2.96 2.96v36.063a2.97 2.97 0 0 1-2.96 2.96 2.97 2.97 0 0 1-2.96-2.96v-36.063a2.969 2.969 0 0 1 2.96-2.96Zm62.576 0a2.97 2.97 0 0 1 2.961 2.96v36.063a2.97 2.97 0 0 1-2.96 2.96h-.001a2.97 2.97 0 0 1-2.96-2.96v-36.063a2.97 2.97 0 0 1 2.96-2.96Zm-53.618 0a2.968 2.968 0 0 1 2.941 2.96v36.063a2.97 2.97 0 0 1-2.96 2.96 2.97 2.97 0 0 1-2.96-2.96v-36.063a2.97 2.97 0 0 1 2.941-2.96h.038Zm8.921 0a2.969 2.969 0 0 1 2.96 2.96v36.063a2.97 2.97 0 0 1-2.96 2.96 2.97 2.97 0 0 1-2.96-2.96v-36.063a2.969 2.969 0 0 1 2.96-2.96Zm8.958 0a2.968 2.968 0 0 1 2.941 2.96v36.063a2.97 2.97 0 0 1-2.96 2.96 2.97 2.97 0 0 1-2.96-2.96v-36.063a2.97 2.97 0 0 1 2.941-2.96h.038Zm8.921 0a2.969 2.969 0 0 1 2.96 2.96v36.063a2.969 2.969 0 0 1-2.96 2.96 2.969 2.969 0 0 1-2.96-2.96v-36.063a2.969 2.969 0 0 1 2.96-2.96Zm17.879 0a2.969 2.969 0 0 1 2.96 2.96v36.063a2.969 2.969 0 0 1-2.96 2.96 2.97 2.97 0 0 1-2.96-2.96v-36.063a2.97 2.97 0 0 1 2.96-2.96Zm-8.94 0a2.97 2.97 0 0 1 2.961 2.96v36.063a2.97 2.97 0 0 1-2.961 2.96 2.97 2.97 0 0 1-2.96-2.96v-36.063a2.97 2.97 0 0 1 2.96-2.96ZM1641.66 661.541a3.998 3.998 0 0 1 3.987 3.987v5.627a3.998 3.998 0 0 1-3.986 3.986h-.001a3.997 3.997 0 0 1-3.986-3.986v-5.627a3.996 3.996 0 0 1 3.986-3.987Z"/><path fill="#ebf3ff" d="M1746.56 878.184c5.44 0 9.856 4.349 9.856 9.706 0 5.357-4.416 9.707-9.856 9.707-5.439 0-9.856-4.35-9.856-9.707 0-5.357 4.417-9.706 9.856-9.706Zm-63.021-106.944c33.821 24.617 47.585 54.598 51.671 89.103.624 5.267 5.4 9.031 10.667 8.407 5.267-.624 9.032-5.399 8.408-10.666-4.697-39.656-20.572-74.082-59.443-102.374a9.604 9.604 0 0 0-11.303 15.53Z"/><path fill="#fff" d="M2518.99 1128.82c0-30.738-24.955-55.693-55.692-55.693h-802.497c-30.737 0-55.692 24.955-55.692 55.693v259.897c0 30.738 24.955 55.693 55.692 55.693h802.497c30.737 0 55.692-24.955 55.692-55.693V1128.82Z"/><path fill="#c3d9fa" d="M2462.62 1305.32c0-7.847-4.422-14.218-9.868-14.218h-433.321c-5.447 0-9.869 6.371-9.869 14.218 0 7.846 4.422 14.217 9.869 14.217h433.321c5.446 0 9.868-6.371 9.868-14.217Zm-155.245-93.105c0-7.847-4.421-14.217-9.868-14.217h-278.076c-5.447 0-9.869 6.37-9.869 14.217s4.422 14.217 9.869 14.217h278.076c5.447 0 9.868-6.37 9.868-14.217Z"/><ellipse cx="1815.84" cy="1258.77" fill="#ebf3ff" rx="154.362" ry="154.35"/><path fill="#9dc9fc" d="M1815.84 1108.75c69.262 0 125.41 52.158 125.41 136.206 0 84.048-56.148 168.16-125.41 168.16s-125.409-84.112-125.409-168.16 56.147-136.206 125.409-136.206Z"/><path fill="#cde4ff" d="M1826.41 1109.17c64.314 5.035 114.842 56.06 114.842 135.788 0 79.727-50.527 159.5-114.842 167.493-64.315-7.992-114.841-87.766-114.841-167.493 0-79.728 50.526-130.752 114.841-135.788Z"/><path fill="#9dc9fc" d="M1815.84 1358.16c19.014 0 34.523-9.495 34.523-21.137 0-11.642-15.508-21.137-34.523-21.137-19.015 0-34.523 9.495-34.523 21.137 0 11.642 15.509 21.137 34.523 21.137Zm-45.794-94.411c19.014 0 34.522-9.495 34.522-21.136s-15.508-21.137-34.522-21.137c-19.015 0-34.523 9.495-34.523 21.137 0 11.642 15.508 21.136 34.523 21.136Zm91.591 0c19.014 0 34.522-9.495 34.522-21.136s-15.509-21.137-34.522-21.137c-19.015 0-34.523 9.495-34.523 21.137 0 11.642 15.508 21.136 34.523 21.136Z"/><path fill="#cde4ff" d="M1815.84 1330.62c2.685-3.626 5.369-5.438 10.74-5.438 5.929 0 10.906 3.25 10.739 7.252-.384 9.169-42.958 8.813-42.958 0 0-4.004 4.811-7.252 10.739-7.252 5.371-.001 8.056 1.812 10.74 5.438Z"/><path fill="#cde4ff" d="M1829.98 1342.4c-3.747 3.183-7.725 5.438-14.274 5.438-6.359 0-10.644-2.069-14.082-5.361-4.346-4.161 33.18-4.174 28.356-.077ZM1879.58 1246.47c-11.708 4.968-22.945 4.98-33.594 0-9.818-4.591-2.378-11.101.619-9.209 10.209 6.447 21.443 6.201 32.356.088 3.296-1.845 10.162 5.074.619 9.121ZM1785.17 1246.47c-11.707 4.968-22.945 4.98-33.593 0-9.818-4.591-2.378-11.101.619-9.209 10.209 6.447 21.444 6.201 32.357.088 3.294-1.845 10.16 5.074.617 9.121Z"/><path fill="#ebf3ff" d="m1888.38 1332.66 25.702 13.763c2.355 1.262 3.251 4.221 1.989 6.577a4.874 4.874 0 0 1-6.577 1.99l-25.702-13.764c-2.356-1.261-3.252-4.221-1.99-6.576v-.001a4.874 4.874 0 0 1 6.578-1.989Zm-145.863 0-25.702 13.763c-2.356 1.262-3.252 4.221-1.99 6.577 1.261 2.356 4.221 3.251 6.577 1.99l25.703-13.764c2.356-1.261 3.252-4.221 1.99-6.576v-.001a4.874 4.874 0 0 0-6.578-1.989Zm.392-162.771-25.703-13.763c-2.356-1.261-3.251-4.221-1.99-6.577s4.221-3.251 6.577-1.99l25.702 13.763a4.874 4.874 0 0 1 1.99 6.577v.001a4.872 4.872 0 0 1-6.576 1.989Zm145.863 0 25.702-13.763a4.872 4.872 0 0 0 1.99-6.577 4.874 4.874 0 0 0-6.577-1.99l-25.703 13.763c-2.355 1.262-3.251 4.221-1.989 6.577v.001a4.873 4.873 0 0 0 6.577 1.989Z"/><path fill="#fff" d="M2626.06 1579.45c0-30.737-24.955-55.692-55.693-55.692h-802.496c-30.738 0-55.693 24.955-55.693 55.692v259.898c0 30.737 24.955 55.692 55.693 55.692h802.496c30.738 0 55.693-24.955 55.693-55.692V1579.45Z"/><path fill="#c3d9fa" d="M2569.69 1755.95c0-7.847-4.422-14.217-9.869-14.217H2126.5c-5.446 0-9.868 6.37-9.868 14.217s4.422 14.218 9.868 14.218h433.321c5.447 0 9.869-6.371 9.869-14.218Zm-155.245-93.104c0-7.847-4.422-14.218-9.868-14.218H2126.5c-5.446 0-9.868 6.371-9.868 14.218 0 7.846 4.422 14.217 9.868 14.217h278.077c5.446 0 9.868-6.371 9.868-14.217Z"/><ellipse cx="1922.91" cy="1709.4" fill="#ebf3ff" rx="154.362" ry="154.35"/><path fill="#84b6f8" d="M1810.63 1574.2h224.569c9.728 0 17.686 7.958 17.686 17.686v235.028c0 9.728-7.958 17.686-17.686 17.686H1810.63c-9.728 0-17.685-7.958-17.685-17.686v-235.028c0-9.727 7.958-17.686 17.685-17.686Z"/><path fill="#9dc9fc" d="M1807.96 1574.2h229.893c8.263 0 15.023 8.279 15.023 18.397v118.949h-259.939v-118.949c0-10.118 6.761-18.397 15.023-18.397Z"/><path fill="#cde4ff" d="M1817.4 1598.16h211.03c3.842 0 6.986 3.144 6.986 6.986v88.711c0 3.843-3.145 6.986-6.986 6.986H1817.4c-3.842 0-6.986-3.143-6.986-6.986v-88.711c0-3.843 3.144-6.986 6.986-6.986Z"/><path fill="#9dc9fc" d="M1813.93 1721.38h44.669a3.528 3.528 0 0 1 3.518 3.518v95.648a3.528 3.528 0 0 1-3.518 3.518h-44.669a3.528 3.528 0 0 1-3.518-3.518v-95.648a3.528 3.528 0 0 1 3.518-3.518Z"/><path fill="#649ef3" d="M1842.58 1721.38h18.111a1.43 1.43 0 0 1 1.426 1.426v99.831a1.43 1.43 0 0 1-1.426 1.427h-18.111a1.43 1.43 0 0 1-1.426-1.427v-99.831a1.43 1.43 0 0 1 1.426-1.426ZM1900.58 1721.38h44.668a3.528 3.528 0 0 1 3.519 3.518v95.648a3.528 3.528 0 0 1-3.519 3.518h-44.668a3.528 3.528 0 0 1-3.518-3.518v-95.648a3.527 3.527 0 0 1 3.518-3.518Z"/><path fill="#5090ef" d="M1929.23 1721.38h18.111a1.43 1.43 0 0 1 1.426 1.426v99.831a1.43 1.43 0 0 1-1.426 1.427h-18.111a1.43 1.43 0 0 1-1.426-1.427v-99.831a1.431 1.431 0 0 1 1.426-1.426ZM1987.23 1721.38h44.669a3.528 3.528 0 0 1 3.518 3.518v95.648a3.528 3.528 0 0 1-3.518 3.518h-44.669a3.528 3.528 0 0 1-3.519-3.518v-95.648a3.53 3.53 0 0 1 3.519-3.518Z"/><path fill="#0d4f91" d="M2015.88 1721.38h18.11a1.43 1.43 0 0 1 1.427 1.426v99.831c0 .785-.642 1.427-1.427 1.427h-18.11a1.431 1.431 0 0 1-1.427-1.427v-99.831a1.43 1.43 0 0 1 1.427-1.426Z"/><path fill="#fff" d="M2626.06 2030.08c0-30.738-24.955-55.693-55.693-55.693h-802.496c-30.738 0-55.693 24.955-55.693 55.693v259.897c0 30.738 24.955 55.693 55.693 55.693h802.496c30.738 0 55.693-24.955 55.693-55.693V2030.08Z"/><path fill="#c3d9fa" d="M2569.69 2206.58c0-7.847-4.422-14.218-9.869-14.218H2126.5c-5.446 0-9.868 6.371-9.868 14.218 0 7.847 4.422 14.217 9.868 14.217h433.321c5.447 0 9.869-6.37 9.869-14.217Zm-155.245-93.105c0-7.847-4.422-14.217-9.868-14.217H2126.5c-5.446 0-9.868 6.37-9.868 14.217s4.422 14.218 9.868 14.218h278.077c5.446 0 9.868-6.371 9.868-14.218Z"/><ellipse cx="1922.91" cy="2160.03" fill="#ebf3ff" rx="154.362" ry="154.35"/><path fill="#84b6f8" d="m1840.28 2009.17 47.615 21.48c1.988.896 3.969 1.791 3.969 3.969v83.335a3.986 3.986 0 0 1-3.969 3.969h-47.615a3.98 3.98 0 0 1-3.969-3.969v-104.815c-.001-2.183 1.981-4.864 3.969-3.969Z"/><path fill="#9dc9fc" d="m1855.62 2016.09 32.274 14.56c1.988.896 3.969 1.791 3.969 3.969v83.335a3.986 3.986 0 0 1-3.969 3.969h-32.274V2016.09Z"/><path fill="#84b6f8" d="M1980.1 2080.1c26.062 0 47.385 21.323 47.385 47.384v181.762h-94.768v-181.762c0-26.06 21.322-47.384 47.383-47.384Z"/><path fill="#9dc9fc" d="M1994.65 2082.4c19.001 6.177 32.835 24.092 32.835 45.083v181.761h-65.67v-181.763c0-20.991 13.834-38.904 32.835-45.081ZM1824.88 2109.2h78.429v112.753h-78.429z"/><path fill="#cde4ff" d="M1847.44 2109.2h55.866v112.753h-55.866z"/><path fill="#5090ef" d="M1818.34 2198.31h94.768v102.749c0 5.503-4.502 10.004-10.004 10.004h-74.76c-5.502 0-10.004-4.501-10.004-10.004V2198.31Z"/><path fill="#ebf3ff" d="M2020.01 2249.67c0-5.206-4.226-9.432-9.432-9.432h-.09c-5.205 0-9.431 4.226-9.431 9.432 0 5.205 4.226 9.431 9.431 9.431h.09c5.206 0 9.432-4.226 9.432-9.431Zm0-101.819c0-5.23-4.247-9.476-9.477-9.476s-9.476 4.246-9.476 9.476v77.272c0 5.23 4.246 9.476 9.476 9.476s9.477-4.246 9.477-9.476v-77.272Z"/><path fill="#649ef3" d="M1913.11 2263.3v37.759c0 5.503-4.502 10.004-10.005 10.004h-52.935c-5.503 0-10.004-4.501-10.004-10.004v-35.453h70.638a2.313 2.313 0 0 0 2.306-2.306Zm-72.944-19.534v-43.637c0-1.001.818-1.819 1.819-1.819h69.306c1 0 1.819.817 1.819 1.818v43.638h-72.944Z"/><path fill="#ffc5a8" d="M1424.73 2306.68h-71.402l25.853 191.488h71.402l-25.853-191.488Z"/><path fill="#ff8069" d="m1424.72 2306.7-71.151-.023 7.015 54.706 64.136-54.683Z"/><path fill="#fba800" d="M1455 2424.33c-11.874 7.047-18.112 14.307-21.586 21.686-2.801 5.95-2.397 12.08-1.565 18.193-19.314 3.005-38.299-.589-57.321-6.462l-.048 40.425s161.571-.436 194.153-1.725c4.069-.161 4.281-4.614 1.34-6.01-15.916-7.556-95.863-41.736-95.863-41.736L1455 2424.33Z"/><path fill="#fbd474" d="M1542.53 2488.43a2.155 2.155 0 0 0-2.13-2.034h-156.582a1.923 1.923 0 0 0-1.938 2.034 2.156 2.156 0 0 0 2.13 2.034h156.583c1.122 0 1.99-.912 1.937-2.034ZM1482.44 2424.8a54.593 54.593 0 0 0-4.048 6.251c-2.166 3.927-3.605 7.831-3.817 10.907-.158 2.3.374 4.175 1.636 5.396.429.414.874.598 1.308.625.426.027.864-.1 1.289-.417.562-.419 1.146-1.247 1.681-2.43 1.756-3.888 3.248-11.909 3.678-19.628 2.438-3.206 5.187-6.07 7.861-8.02 1.411-1.029 2.795-1.8 4.1-2.212 1.175-.371 2.273-.45 3.242-.103 1.89.679 3.122 1.664 3.793 2.912 1.044 1.941.756 4.428-.23 7.133-2.671 7.333-10.584 16.095-15.441 20.573-1.825 1.682-3.968 3.579-6.14 4.794-.417.233-.549.769-.296 1.197.254.428.798.586 1.214.353 2.28-1.276 4.538-3.256 6.453-5.021 5.004-4.614 13.122-13.669 15.874-21.224 1.185-3.251 1.369-6.25.114-8.582-.86-1.6-2.392-2.924-4.814-3.793-2.488-.893-5.689.149-8.955 2.53-2.238 1.632-4.53 3.878-6.662 6.43.049-2.696-.051-5.278-.336-7.546-.316-2.527-.867-4.674-1.669-6.19-.617-1.167-1.395-1.985-2.3-2.412-3.397-1.602-5.993-1.8-7.931-1.061-2.902 1.106-4.46 4.393-4.96 8.871-1.154 10.354 3.102 27.192 5.256 34.181a.926.926 0 0 0 1.106.631.841.841 0 0 0 .581-1.077c-2.109-6.842-6.317-23.321-5.186-33.458.415-3.72 1.49-6.576 3.9-7.495 1.602-.61 3.735-.326 6.542.998.646.304 1.14.959 1.562 1.834.501 1.038.87 2.371 1.137 3.908.545 3.134.656 7.079.458 11.145Zm-.241 3.464a51.5 51.5 0 0 0-2.249 3.694c-2.03 3.679-3.414 7.322-3.612 10.204-.115 1.672.153 3.064 1.071 3.952.05.049.09.094.141.104.075.015.126-.06.201-.121.164-.136.324-.331.486-.573.677-1.012 1.317-2.732 1.898-4.887.914-3.393 1.66-7.836 2.064-12.373ZM1440.89 2452.5c1.177 9.282 10.14 16.473 22.956 21.009 18.77 6.642 45.784 7.702 67.414 2.031a.841.841 0 0 0 .582-1.076.927.927 0 0 0-1.105-.633c-21.296 5.584-47.892 4.557-66.372-1.983-12.019-4.254-20.618-10.783-21.722-19.488a.934.934 0 0 0-.988-.81.836.836 0 0 0-.765.95Z"/><path fill="#ffc5a8" d="M1056.74 2308.35h-71.402l-51.208 191.487h71.402l51.208-191.487Z"/><path fill="#ff8069" d="m1056.73 2308.36-71.141-.024-15.001 54.707 86.142-54.683Z"/><path fill="#fba800" d="M1039.67 2426c-14.709 7.046-23.869 14.307-30.312 21.685-5.197 5.951-7.26 12.081-8.888 18.194-20.522 3.004-38.061-.59-54.719-6.462l-16.317 40.424s161.747-.435 194.847-1.725c4.134-.161 6.138-4.613 3.758-6.009-12.875-7.556-79.067-41.736-79.067-41.736L1039.67 2426Z"/><path fill="#fbd474" d="M1101.39 2490.1c.399-1.122-.189-2.034-1.312-2.034H943.496c-1.123 0-2.358.912-2.756 2.034-.399 1.123.189 2.034 1.312 2.034h156.582c1.123 0 2.357-.911 2.756-2.034ZM1066.92 2426.46a98.428 98.428 0 0 0-6.563 6.251c-3.746 3.927-6.756 7.83-8.206 10.907-1.084 2.3-1.307 4.174-.535 5.396.261.414.632.597 1.055.625.416.026.905-.1 1.458-.417.73-.419 1.648-1.247 2.658-2.43 3.321-3.888 8.041-11.91 11.578-19.629 3.727-3.205 7.629-6.069 11.088-8.019 1.824-1.029 3.52-1.801 4.99-2.212 1.325-.371 2.454-.451 3.283-.103 1.618.678 2.453 1.663 2.622 2.912.263 1.94-1.026 4.427-3.1 7.132-5.623 7.333-17.062 16.096-23.721 20.574-2.501 1.681-5.409 3.578-8.069 4.794-.511.233-.859.769-.778 1.197.081.428.562.586 1.072.352 2.793-1.275 5.848-3.255 8.473-5.021 6.862-4.613 18.623-13.668 24.416-21.224 2.492-3.25 3.884-6.25 3.568-8.582-.217-1.599-1.216-2.923-3.289-3.792-2.128-.893-5.749.149-9.972 2.53-2.895 1.632-6.091 3.878-9.25 6.43 1.134-2.696 2.073-5.279 2.701-7.546.7-2.527 1.014-4.674.822-6.19-.147-1.167-.596-1.986-1.33-2.413-2.752-1.602-5.268-1.799-7.504-1.06-3.346 1.106-6.228 4.393-8.529 8.87-5.322 10.355-7.842 27.193-8.5 34.182-.045.471.337.754.852.631.515-.123.969-.605 1.014-1.077.645-6.842 3.069-23.322 8.279-33.459 1.912-3.719 4.136-6.575 6.916-7.494 1.848-.611 3.867-.327 6.141.997.523.305.754.959.824 1.834.083 1.038-.085 2.372-.436 3.908-.716 3.134-2.193 7.08-4.028 11.146Zm-1.634 3.464a92.665 92.665 0 0 0-3.736 3.694c-3.51 3.679-6.36 7.321-7.718 10.203-.788 1.673-1.081 3.065-.52 3.953.031.048.053.093.099.103.069.015.15-.059.25-.121.219-.135.457-.33.716-.572 1.085-1.012 2.417-2.733 3.865-4.887 2.28-3.393 4.813-7.836 7.044-12.373ZM1014.22 2454.16c-2.559 9.282 3.51 16.473 14.5 21.008 16.097 6.643 42.685 7.703 66.597 2.031.516-.122.97-.603 1.015-1.075.046-.472-.335-.756-.85-.633-23.543 5.583-49.726 4.556-65.574-1.984-10.307-4.253-16.279-10.782-13.879-19.487.134-.486-.163-.849-.662-.81-.5.038-1.013.464-1.147.95Z"/><path fill="#010190" d="M1088.12 1434.5h127.508l-31.768 278.722c-2.171 98.467 10.608 223.768-1.169 327.092-11.163 97.945-42.915 202.97-69.49 292.855l-163.556.725c-21.317-249.31 72.979-406.006 55.558-596.37-14.35-156.789 20.187-259.137 82.917-303.024Z"/><path fill="#000054" d="m1132.87 1438.89 82.765-4.385-31.768 278.722c-5.735 62.533 14.669 196.736-1.525 325.333 0 0-19.377-99.046-50.172-154.134-33.22-59.427-7.215-82.954-10.417-152.49-1.344-29.179-84.649-161.189 11.117-293.046Z"/><path fill="#010190" d="M1128.35 1434.5c-36.432 113.833 17.133 227.859 55.372 279.836 9.989 103.264 32.352 145.005 27.032 259.055-5.477 117.424 35.898 235.23 99.543 357.723l158.754 3.003c-11.256-315.5-79.509-799.541-174.566-899.617H1128.35Z"/><path fill="#7b9fff" d="M1133.39 2264.38c-5.671 23.599-13.635 46.593-20.194 68.776l-163.556.726c-1.7-19.924-3.315-50.524-3.089-70.115l186.839.613ZM1277.95 2264.66c10.456 23.534 21.398 45.083 32.317 66.565l158.858 2.905c-2.257-22.198-1.725-45.342-3.318-69.418l-187.857-.052Z"/><path fill="#116cd2" d="m1116.87 2312.08-73.451-1.084c-.998-.015-1.794-.807-1.778-1.769.015-.962.836-1.731 1.833-1.716l73.451 1.084c.997.015 1.793.807 1.778 1.769-.015.963-.836 1.731-1.833 1.716ZM1275.36 1435.61s25.666 88.444 37.155 107.852c1.99 3.362 7.118 5.125 12.444 6.23 8.588 1.782 26.167 1.533 26.167 1.533.964-.022 1.757.716 1.771 1.648.013.931-.758 1.705-1.722 1.727 0 0-21.549.327-31.431-2.742-4.591-1.425-8.441-3.618-10.265-6.699-11.572-19.547-37.483-108.608-37.483-108.608-.26-.895.282-1.832 1.211-2.091.929-.26 1.893.255 2.153 1.15ZM1096.61 1435.75s-23.028 89.85-33.965 109.76c-1.723 3.138-5.501 5.454-10.043 7.026-9.778 3.385-35.876 3.463-35.876 3.463-.965.009-1.76-.739-1.777-1.671-.016-.932.753-1.695 1.717-1.704 0 0 22.127-.027 30.654-2.085 5.288-1.276 10.355-3.203 12.236-6.627 10.858-19.768 33.661-108.994 33.661-108.994.231-.903 1.178-1.449 2.115-1.219.937.23 1.509 1.148 1.278 2.051Z"/><path fill="#116cd2" d="M1073.08 1450.9c56.318 17.965 165.071 20.338 232.922 2.129.907-.243 1.423-1.103 1.153-1.921-.27-.817-1.224-1.283-2.131-1.039-67.233 18.042-174.996 15.721-230.801-2.081-.892-.284-1.871.137-2.187.941-.316.804.152 1.686 1.044 1.971ZM1120.21 2301.48l-108.714-1.605c-.997-.015-1.793-.807-1.778-1.769.015-.962.836-1.731 1.833-1.716l108.714 1.605c.997.014 1.793.807 1.778 1.769-.015.962-.836 1.73-1.833 1.716ZM1460.8 2297.59l-108.714-1.604c-.997-.015-1.793-.807-1.778-1.769.016-.963.836-1.731 1.833-1.716l108.714 1.604c.998.015 1.794.807 1.778 1.77-.015.962-.836 1.73-1.833 1.715ZM1462.39 2309.02l-73.452-1.084c-.997-.015-1.793-.807-1.778-1.769.016-.963.836-1.731 1.834-1.716l73.451 1.084c.997.015 1.793.807 1.778 1.769-.015.962-.836 1.731-1.833 1.716Z"/><path fill="#ffc5a8" d="m1081.11 1365.15-46.608 110.13c-30.676 69.321-101.49 23.564-86.131-25.917 19-61.214 45.668-119.244 45.668-119.244l87.071 35.031Z"/><path fill="#ff8069" d="m993.655 1329.95 87.268 35.418-13.746 31.446-73.522-66.864Z"/><path fill="#fba800" d="M983.025 1329.09c24.121-57.854 46.374-103.051 46.374-103.051 33.227-84.228 125.083-26.987 88.699 81.968l-27.338 64.428-107.735-43.345Z"/><path fill="#fc8b10" d="m1089.24 1371.83 3.047 1.226 27.326-64.4c.016-.04.032-.081.045-.122 13.279-39.764 9.629-72.733-1.951-94.663-7.852-14.868-19.142-25.575-31.792-28.313-5.686-1.231-4.003 2.513-.915 3.153 11.912 2.465 22.425 12.719 29.804 26.693 11.259 21.322 14.655 53.373 1.762 92.027l-27.326 64.399Z"/><path fill="#fff" d="m1300.82 1349.05-5.654 93.067c-80.532 13.597-133.279 14.034-215.962-.432 0 0-1.704-70.428-22.525-117.638-19.963-45.264-23.164-94.743-12.938-117.21 13.05-28.675 71.465-38.194 81.477-39.359 40.197-4.675 74.801-3.843 113.927 1.276 7.217.944 49.826 37.985 54.683 71.858 2.682 18.706 20.99 43.149 23.203 69.494 1.667 19.847-16.211 38.944-16.211 38.944Z"/><path fill="#fbd474" d="M1296.65 1358.69c-2.772 3.101-4.637 5.009-4.637 5.009a1.666 1.666 0 0 1-2.381-2.329s12.321-14.557 20.451-27.99c3.35-5.536 5.847-11.015 5.961-15.439.15-5.802-2.009-14.719-5.059-24.369-7.244-22.925-19.611-49.877-19.611-49.877a1.666 1.666 0 0 1 3.027-1.389s12.459 27.161 19.76 50.263c3.184 10.076 5.369 19.4 5.212 25.458-.126 4.879-2.746 10.972-6.441 17.078-3.745 6.188-7.564 13.355-11.732 18.33l-5.664 88.666a1.766 1.766 0 0 1-1.841 1.659 1.72 1.72 0 0 1-1.631-1.829l4.586-83.241Z"/><path fill="#ffc5a8" d="m1358.93 1256.92 118.412-16.716c74.879-11.816 48.873-92.015-2.893-89.9-64.042 2.618-126.979 13.465-126.979 13.465l11.46 93.151Z"/><path fill="#ff8069" d="m1347.53 1163.75 11.664 93.051 42.209-5.892-48.638-87.978s-3.489.544-5.235.819Z"/><path fill="#fba800" d="M1349.32 1152.86c-62.112 8.431-111.512 18.31-111.512 18.31-89.94 10.448-58.249 113.935 56.398 106.796l69.292-9.848-14.178-115.258Z"/><path fill="#fc8b10" d="m1364.76 1266.17-13.548-113.535a1.903 1.903 0 0 0-2.148-1.656c-62.177 8.44-111.629 18.33-111.629 18.33a1.907 1.907 0 0 0 .748 3.738s48.337-9.666 109.482-18.03l13.312 111.618a1.906 1.906 0 1 0 3.783-.465Z"/><path fill="#ffc5a8" d="M1438.78 1160.54c8.599-17.064 101.204-191.603 101.204-191.603 3.275-33.342 7.356-43.527 14.979-55.91 3.108-5.049 14.846-13.678 27.763-20.154 24.166-31.588 44.477-47.115 46.2-44.977 8.373 10.396-9.78 26.913-24.314 52.038 4.791-4.273 13.326-.087 13.471 7.48 3.734-.481 10.312 2.959 10.446 14.017 10.831-1.863 12.029 9.991 14.44 23.959 2.976 17.238-10.668 39.758-19.763 30.486 0 0-11.212 14.996-16.64 16.875l-77.26 206.794c-43.203 84.705-115.993 11.528-90.526-39.005ZM1146.19 1059.9c11.493-93.218 63.038-87.955 98.787-72.191 15.005 6.617 20.243 27.086 15.717 52.17-.321 1.779-3.49 6.728-1.794 12.856 1.665 6.016-1.91 49.085-9.402 55.526-5.961 5.125-15.112 5.102-27.696-.254 0 0 8.227 38.928 9.478 60.648 2.913 50.559-100.316 55.518-99.757-2.676.107-11.114 14.667-106.079 14.667-106.079Z"/><path fill="#ff8069" d="m1209.46 1102.4 12.444 5.608 4.874 27.873-17.318-33.481Z"/><path d="M1229.33 1042.15c-.885-.036-1.561.12-2.113.385-.841.404-1.418 1.085-1.979 1.899a.882.882 0 0 0 1.453 1.001c.376-.546.726-1.039 1.29-1.31.543-.261 1.265-.296 2.333-.073.324.949.532 2.068.641 3.335a.883.883 0 0 0 1.758-.152c-.475-5.502-2.734-8.549-7.082-8.536a.882.882 0 0 0 .005 1.764c1.64-.005 2.844.59 3.694 1.687Z"/><circle cx="1243.24" cy="1079.66" r="13.808" fill="#ff9c81"/><path d="M1103.95 978.812c-1.288 2.955-2.413 6.314-3.355 10.138-24.692 100.223-100.075 85.411-77.753 142.982 8.65 22.311-28.069 34.005-27.544 62.424 1.346 72.994 180.131 73.516 216.974 53.072 59.676-33.112 16.963-73.296 17.742-94.031 1.564-41.607-20.932-28.513-20.024-62.181.431-15.957 21.702-15.46 20.123-31.504-14.876-1.991-21.993-44.101 6.925-28.205 15.253 8.384 32.182-11.635 22.911-49.259-5.703-23.147-35.391-27.226-48.111-30.049-12.334-2.737-31.411-4.002-58.976 1.128-4.898.911-9.747 1.56-14.419 2.351-2.107-11.583-7.993-24.214-18.636-33.073-13.557-11.285-32.42-6.551-43.335 6.69-4.863 5.9-11.199 23.34 11.759 39.84 5.623 4.04 10.889 7.233 15.719 9.677Z"/><path fill="#fd235d" d="M1104.39 977.477c12.743-.559 23.241-6.749 32.113-20.73a1.849 1.849 0 1 1 3.122 1.981c-9.664 15.231-21.191 21.834-35.073 22.444a1.85 1.85 0 0 1-.162-3.695Z"/><path fill="#cde4ff" d="m702.373 547.416 61.754 34.654 64.579-2.027 36.153 60.889 56.941 30.536.867 70.807 34.043 54.914-34.652 61.754 2.023 64.579-60.885 36.153-30.537 56.94-70.806.868-54.916 34.044-61.753-34.654-64.58 2.025-36.153-60.887-56.941-30.536-.865-70.807-34.045-54.915L487.254 740l-2.025-64.581 60.887-36.153 30.536-56.94 70.807-.866 54.914-34.044Z"/><path fill="#9dc9fc" d="m546.116 639.266 317.08 320.409-30.537 56.94-70.806.868-54.916 34.044-61.753-34.654-64.58 2.025-36.153-60.887-56.941-30.536-.865-70.807-34.045-54.915L487.254 740l-2.025-64.581 60.887-36.153Z"/><path fill="#fff" d="M704.98 971.352c97.304 0 176.667-79.363 176.667-176.665 0-97.305-79.363-176.666-176.667-176.666-97.303 0-176.665 79.361-176.665 176.666 0 97.304 79.361 176.665 176.665 176.665Z"/><path fill="#9dc9fc" d="M704.98 944.201c82.352 0 149.516-67.165 149.516-149.514 0-82.35-67.164-149.517-149.516-149.517-82.35 0-149.515 67.167-149.515 149.517 0 82.349 67.165 149.514 149.515 149.514Z"/><path fill="#cde4ff" d="M640.957 734.617h127.152c8.229 0 14.527 6.747 14.959 14.959l6.184 117.801c1.348 25.669-27.225 46.747-52.93 46.747h-63.576c-25.706 0-53.203-21.062-52.047-46.747L626 749.576c.369-8.22 6.729-14.959 14.957-14.959Z"/><path fill="#ebf3ff" d="M704.98 675.248c20.055 0 36.463 16.406 36.463 36.461v51.116c0 3.535-2.893 6.427-6.429 6.427h-.001c-3.535 0-6.428-2.893-6.428-6.427v-7.64h-.214v-42.756c0-12.864-10.527-23.391-23.391-23.391-12.865 0-23.391 10.525-23.391 23.391v42.756h-.215v7.64c0 3.535-2.893 6.427-6.428 6.427h-.001c-3.536 0-6.427-2.893-6.427-6.427v-51.116c.001-20.053 16.408-36.461 36.462-36.461Z"/></svg>