<svg xmlns="http://www.w3.org/2000/svg" fill-rule="evenodd" stroke-linejoin="round" stroke-miterlimit="2" clip-rule="evenodd" viewBox="0 0 5000 5000"><g transform="translate(36.478 -88.467) scale(19.4129)"><path fill="#4877f2" d="M-223.213,168.241C-224.935,168.49 -219.068,165.984 -218.826,165.603C-218.254,164.701 -219.316,163.823 -218.838,162.325C-217.411,157.844 -215.344,151.676 -215.027,146.963C-214.886,144.866 -214.821,140.499 -216.944,139.179C-217.787,138.656 -220.769,139.262 -221.091,138.472C-221.401,137.713 -220.511,136.534 -220.171,135.925C-219.238,134.254 -217.173,131.219 -217.651,129.182C-218.347,126.215 -224.483,129.941 -225.786,128.136C-226.503,127.142 -225.65,124.965 -225.446,123.918C-224.922,121.233 -224.724,118.399 -225.397,115.723C-227.794,106.181 -240.4,103.852 -248.299,100.911C-250.274,100.176 -252.1,99.163 -253.93,98.129C-254.45,97.835 -255.336,97.109 -255.968,97.46C-257.609,98.372 -257.343,101.461 -257.277,102.955C-257.052,108.068 -255.88,112.709 -254.012,117.449C-252.815,120.487 -251.628,123.648 -249.762,126.35C-247.66,129.393 -244.858,132.044 -243.32,135.449C-241.744,138.938 -243.334,143.32 -241.074,146.503C-238.353,150.336 -233.222,151.656 -230.524,155.678C-227.756,159.804 -231.778,169.166 -223.213,168.241Z" transform="rotate(23.598 -54.215 1190.748) scale(1.52805)"/><g transform="translate(100.431 -67.408)"><path fill="#7699f5" d="M-230.524,155.678C-228.715,158.375 -226.545,165.112 -222.839,167.853C-220.873,169.307 -216.161,168.591 -215.926,167.853C-214.498,163.373 -215.344,151.676 -215.027,146.963C-214.886,144.866 -214.821,140.499 -216.944,139.179C-217.787,138.656 -220.769,139.262 -221.091,138.472C-221.401,137.713 -220.511,136.534 -220.171,135.925C-219.238,134.254 -217.173,131.219 -217.651,129.182C-218.347,126.215 -224.483,129.941 -225.786,128.136C-226.503,127.142 -225.65,124.965 -225.446,123.918C-224.922,121.233 -224.724,118.399 -225.397,115.723C-227.794,106.181 -240.4,103.852 -248.299,100.911C-250.274,100.176 -252.1,99.163 -253.93,98.129C-254.45,97.835 -255.336,97.109 -255.968,97.46C-257.609,98.372 -257.343,101.461 -257.277,102.955C-257.052,108.068 -255.88,112.709 -254.012,117.449C-252.815,120.487 -251.628,123.648 -249.762,126.35C-247.66,129.393 -244.858,132.044 -243.32,135.449C-241.744,138.938 -243.334,143.32 -241.074,146.503C-238.353,150.336 -233.222,151.656 -230.524,155.678Z" transform="translate(174.132 118.67)"/><path fill="#fff" d="M-59.551,254.291C-62.012,249.469 -64.595,244.73 -67.548,240.136C-69.501,237.098 -71.847,234.202 -73.567,231.025C-73.772,230.646 -74.956,228.481 -74.281,228.102C-73.439,227.629 -71.859,230.307 -71.564,230.753C-69.328,234.134 -67.509,237.839 -65.455,241.336C-64.772,242.499 -64.074,243.667 -63.367,244.84C-63.896,241.975 -63.412,238.37 -63.137,235.659C-63.039,234.702 -62.918,233.752 -62.549,232.856C-62.508,232.756 -62.293,232.094 -62.084,232.231C-61.331,232.723 -61.615,235.466 -61.642,236.173C-61.772,239.606 -62.277,243.01 -62.398,246.446C-59.193,251.747 -55.895,257.166 -53.182,262.793C-53.166,262.728 -53.149,262.664 -53.132,262.599C-52.813,261.413 -52.351,260.166 -51.553,259.212C-51.359,258.98 -50.906,258.386 -50.535,258.592C-49.91,258.937 -50.026,260.417 -50.039,260.986C-50.092,263.26 -50.784,265.46 -50.994,267.723C-48.662,273.509 -44.948,280.175 -44.886,286.523C-44.883,286.863 -46.484,287.107 -46.484,287.107C-46.199,286.919 -46.48,284.668 -46.493,284.372C-46.631,281.417 -49.049,277.808 -49.747,274.924C-49.755,274.891 -49.763,274.857 -49.772,274.823C-49.792,274.839 -49.82,274.836 -49.856,274.811C-51.714,273.539 -53.823,272.651 -55.394,270.996C-55.598,270.782 -57.085,269.213 -56.238,269.009C-54.837,268.671 -52.684,270.481 -51.627,271.209C-51.578,271.242 -51.115,271.602 -50.745,271.864C-52.03,268.666 -53.927,265.626 -55.417,262.593C-56.264,260.87 -57.109,259.152 -57.962,257.442C-59.92,256.553 -62.053,256.101 -63.718,254.611C-64.209,254.172 -65.326,253.239 -65.236,252.477C-65.177,251.972 -64.34,252.189 -64.034,252.239C-62.86,252.432 -61.729,253.028 -60.698,253.599C-60.347,253.793 -60.007,254.002 -59.672,254.223C-59.641,254.244 -59.598,254.267 -59.551,254.291Z"/></g><g transform="matrix(.70479 -.2034 .15205 .52684 44.083 59.346)"><path fill="#b2c6f9" d="M-230.524,155.678C-228.715,158.375 -226.545,165.112 -222.839,167.853C-220.873,169.307 -217.259,171.396 -217.024,170.658C-215.597,166.177 -215.344,151.676 -215.027,146.963C-214.886,144.866 -214.821,140.499 -216.944,139.179C-217.787,138.656 -220.769,139.262 -221.091,138.472C-221.401,137.713 -220.511,136.534 -220.171,135.925C-219.238,134.254 -217.173,131.219 -217.651,129.182C-218.347,126.215 -224.483,129.941 -225.786,128.136C-226.503,127.142 -225.65,124.965 -225.446,123.918C-224.922,121.233 -224.724,118.399 -225.397,115.723C-227.794,106.181 -240.4,103.852 -248.299,100.911C-250.274,100.176 -252.1,99.163 -253.93,98.129C-254.45,97.835 -255.336,97.109 -255.968,97.46C-257.609,98.372 -257.343,101.461 -257.277,102.955C-257.052,108.068 -255.88,112.709 -254.012,117.449C-252.815,120.487 -253.017,124.364 -251.15,127.066C-249.049,130.109 -246.246,132.759 -244.709,136.165C-243.133,139.654 -244.722,144.036 -242.463,147.219C-239.742,151.051 -233.222,151.656 -230.524,155.678Z" transform="translate(174.132 118.67)"/><path fill="#fff" d="M-59.551,254.291C-62.012,249.469 -64.595,244.73 -67.548,240.136C-69.501,237.098 -71.847,234.202 -73.567,231.025C-73.772,230.646 -74.956,228.481 -74.281,228.102C-73.439,227.629 -71.859,230.307 -71.564,230.753C-69.328,234.134 -67.509,237.839 -65.455,241.336C-64.772,242.499 -64.074,243.667 -63.367,244.84C-63.896,241.975 -63.412,238.37 -63.137,235.659C-63.039,234.702 -62.918,233.752 -62.549,232.856C-62.508,232.756 -62.293,232.094 -62.084,232.231C-61.331,232.723 -61.615,235.466 -61.642,236.173C-61.772,239.606 -62.277,243.01 -62.398,246.446C-59.193,251.747 -55.895,257.166 -53.182,262.793C-53.166,262.728 -53.149,262.664 -53.132,262.599C-52.813,261.413 -52.351,260.166 -51.553,259.212C-51.359,258.98 -50.906,258.386 -50.535,258.592C-49.91,258.937 -50.026,260.417 -50.039,260.986C-50.092,263.26 -50.784,265.46 -50.994,267.723C-48.662,273.509 -44.948,280.175 -44.886,286.523C-44.883,286.863 -46.484,287.107 -46.484,287.107C-46.199,286.919 -46.48,284.668 -46.493,284.372C-46.631,281.417 -49.049,277.808 -49.747,274.924C-49.755,274.891 -49.763,274.857 -49.772,274.823C-49.792,274.839 -49.82,274.836 -49.856,274.811C-51.714,273.539 -53.823,272.651 -55.394,270.996C-55.598,270.782 -57.085,269.213 -56.238,269.009C-54.837,268.671 -52.684,270.481 -51.627,271.209C-51.578,271.242 -51.115,271.602 -50.745,271.864C-52.03,268.666 -53.927,265.626 -55.417,262.593C-56.264,260.87 -57.109,259.152 -57.962,257.442C-59.92,256.553 -62.053,256.101 -63.718,254.611C-64.209,254.172 -65.326,253.239 -65.236,252.477C-65.177,251.972 -64.34,252.189 -64.034,252.239C-62.86,252.432 -61.729,253.028 -60.698,253.599C-60.347,253.793 -60.007,254.002 -59.672,254.223C-59.641,254.244 -59.598,254.267 -59.551,254.291Z"/></g><g transform="translate(-45.078 -7.962)"><path fill="#1d3fab" d="M365.694,160.989C365.503,161.021 365.784,160.055 365.803,159.999C366.175,158.926 366.754,157.88 367.464,156.995C369.493,154.467 373.109,153.793 373.128,149.925C373.133,148.855 372.819,147.838 372.223,146.953C372.015,146.644 371.429,146.014 371.706,145.599C372.002,145.155 373.164,145.28 373.606,145.236C375.215,145.075 378.015,143.497 376.941,141.436C375.819,139.284 372.678,140.945 371.138,141.521C370.551,141.741 369.22,142.034 369.539,140.938C370.084,139.067 373.581,138.474 375.036,137.719C377.892,136.236 379.98,133.59 380.987,130.549C381.452,129.145 382.235,125.857 380.375,124.998C379.135,124.426 377.169,126.2 376.275,126.823C373.325,128.881 368.539,131.453 367.739,135.292C367.474,136.568 367.814,137.737 368.13,138.966C368.295,139.606 368.561,140.645 368.128,141.246C367.684,141.861 367.298,140.273 367.256,140.071C367.008,138.879 366.36,134.06 364.179,135.672C362.773,136.712 362.916,138.997 363.325,140.48C363.815,142.251 364.96,143.874 364.95,145.766C364.942,147.198 364.2,148.461 363.973,149.848C363.757,151.171 364.301,152.479 364.251,153.807C364.19,155.41 363.454,156.97 363.639,158.576C363.711,159.206 365.694,160.989 365.694,160.989Z" transform="translate(-651.753 -150.647) scale(2.34738)"/><path fill="#fff" d="M223.951,208.853C224.09,209.035 223.929,208.396 223.931,208.168C223.937,207.645 223.963,207.122 223.985,206.6C224.058,204.877 224.204,203.151 224.488,201.45C225.266,196.775 227.085,192.556 228.824,188.184C230.872,183.035 232.182,177.579 232.81,172.074C233.34,167.429 233.34,162.686 234.689,158.167C236.419,152.375 240.152,146.921 244.293,142.583C247.037,139.708 250.268,137.319 253.591,135.16C254.399,134.635 256.246,133.095 257.328,133.441C258.003,133.657 256.48,135.046 256.314,135.201C254.468,136.931 252.362,138.391 250.452,140.051C245.579,144.287 241.007,148.919 237.48,154.36C234.997,158.191 232.965,162.432 231.963,166.902C230.568,173.125 230.812,179.558 229.793,185.838C228.715,192.472 225.925,198.834 225.393,205.549C225.336,206.268 223.951,208.853 223.951,208.853Z" transform="translate(-19.115 17.39)"/></g><path fill="#92a1f7" d="M215.173,76.487C231.393,76.487 244.561,89.655 244.561,105.875C244.561,122.095 231.393,135.263 215.173,135.263C198.953,135.263 185.784,122.095 185.784,105.875C185.784,89.655 198.953,76.487 215.173,76.487ZM215.173,81.578C228.582,81.578 239.469,92.465 239.469,105.875C239.469,119.285 228.582,130.172 215.173,130.172C201.763,130.172 190.876,119.285 190.876,105.875C190.876,92.465 201.763,81.578 215.173,81.578Z" transform="translate(74.048 41.332) scale(.62021)"/><path fill="#1f41ac" d="M208.243,95.521C209.303,95.521 210.162,96.38 210.162,97.44C210.162,99.536 210.162,102.878 210.162,105.003C210.162,105.532 209.952,106.039 209.578,106.413C209.204,106.787 208.697,106.997 208.168,106.997L208.165,106.997C207.636,106.997 207.129,106.787 206.755,106.413C206.381,106.039 206.171,105.532 206.171,105.003L206.171,97.44C206.171,96.38 207.031,95.521 208.091,95.521C208.141,95.521 208.192,95.521 208.243,95.521Z" transform="translate(-.76 2.236)"/><path fill="#1f41ac" d="M208.243,95.521C208.752,95.521 209.24,95.68 209.6,95.964C209.96,96.248 210.162,96.633 210.162,97.035C210.162,99.214 210.162,103.213 210.162,105.424C210.162,106.293 209.27,106.997 208.168,106.997L208.165,106.997C207.064,106.997 206.171,106.293 206.171,105.424C206.171,103.213 206.171,99.214 206.171,97.035C206.171,96.633 206.373,96.248 206.733,95.964C207.093,95.68 207.582,95.521 208.091,95.521C208.141,95.521 208.192,95.521 208.243,95.521Z" transform="matrix(.57932 -.8151 1.03324 .73435 -13.412 206.501)"/><circle cx="194.948" cy="106.717" r="2.516" fill="#92a1f7" transform="translate(-2.516)"/><circle cx="194.948" cy="106.717" r="2.516" fill="#92a1f7" transform="translate(27.622 .28)"/><circle cx="194.948" cy="106.717" r="2.516" fill="#92a1f7" transform="translate(12.458 -14.79)"/><circle cx="194.948" cy="106.717" r="2.516" fill="#92a1f7" transform="translate(11.937 15.349)"/><g transform="rotate(19.778 -110.798 290.558) scale(.5836)"><path fill="#7699f5" d="M364.085,161.128C363.894,161.16 366.325,160.061 365.803,159.999C364.674,159.866 366.754,157.88 367.464,156.995C369.493,154.467 373.109,153.793 373.128,149.925C373.133,148.855 372.819,147.838 372.223,146.953C372.015,146.644 371.429,146.014 371.706,145.599C372.002,145.155 373.164,145.28 373.606,145.236C375.215,145.075 378.015,143.497 376.941,141.436C375.819,139.284 372.678,140.945 371.138,141.521C370.551,141.741 369.22,142.034 369.539,140.938C370.084,139.067 373.581,138.474 375.036,137.719C377.892,136.236 379.98,133.59 380.987,130.549C381.452,129.145 382.235,125.857 380.375,124.998C379.135,124.426 377.169,126.2 376.275,126.823C373.325,128.881 368.539,131.453 367.739,135.292C367.474,136.568 367.814,137.737 368.13,138.966C368.295,139.606 368.561,140.645 368.128,141.246C367.684,141.861 367.298,140.273 367.256,140.071C367.008,138.879 366.36,134.06 364.179,135.672C362.773,136.712 362.916,138.997 363.325,140.48C363.815,142.251 364.96,143.874 364.95,145.766C364.942,147.198 364.2,148.461 363.973,149.848C363.757,151.171 364.301,152.479 364.251,153.807C364.19,155.41 363.454,156.97 363.639,158.576C363.711,159.206 364.085,161.128 364.085,161.128Z" transform="translate(-651.753 -150.647) scale(2.34738)"/><path fill="#fff" d="M223.951,208.853C224.09,209.035 223.929,208.396 223.931,208.168C223.937,207.645 223.963,207.122 223.985,206.6C224.058,204.877 224.204,203.151 224.488,201.45C225.266,196.775 227.085,192.556 228.824,188.184C230.872,183.035 232.182,177.579 232.81,172.074C233.34,167.429 233.34,162.686 234.689,158.167C236.419,152.375 240.152,146.921 244.293,142.583C247.037,139.708 250.268,137.319 253.591,135.16C254.399,134.635 256.246,133.095 257.328,133.441C258.003,133.657 256.48,135.046 256.314,135.201C254.468,136.931 252.362,138.391 250.452,140.051C245.579,144.287 241.007,148.919 237.48,154.36C234.997,158.191 232.965,162.432 231.963,166.902C230.568,173.125 230.812,179.558 229.793,185.838C228.715,192.472 225.925,198.834 225.393,205.549C225.336,206.268 223.951,208.853 223.951,208.853Z" transform="translate(-19.115 17.39)"/></g><g transform="rotate(-27.77 441.982 -138.37) scale(.26993)"><path fill="#7699f5" d="M364.085,161.128C363.894,161.16 366.325,160.061 365.803,159.999C364.674,159.866 366.754,157.88 367.464,156.995C369.493,154.467 373.109,153.793 373.128,149.925C373.133,148.855 372.819,147.838 372.223,146.953C372.015,146.644 371.429,146.014 371.706,145.599C372.002,145.155 373.164,145.28 373.606,145.236C375.215,145.075 378.015,143.497 376.941,141.436C375.819,139.284 372.678,140.945 371.138,141.521C370.551,141.741 369.22,142.034 369.539,140.938C370.084,139.067 373.581,138.474 375.036,137.719C377.892,136.236 379.98,133.59 380.987,130.549C381.452,129.145 382.235,125.857 380.375,124.998C379.135,124.426 377.169,126.2 376.275,126.823C373.325,128.881 368.539,131.453 367.739,135.292C367.474,136.568 367.814,137.737 368.13,138.966C368.295,139.606 368.561,140.645 368.128,141.246C367.684,141.861 367.298,140.273 367.256,140.071C367.008,138.879 366.36,134.06 364.179,135.672C362.773,136.712 362.916,138.997 363.325,140.48C363.815,142.251 364.96,143.874 364.95,145.766C364.942,147.198 364.2,148.461 363.973,149.848C363.757,151.171 364.301,152.479 364.251,153.807C364.19,155.41 363.454,156.97 363.639,158.576C363.711,159.206 364.085,161.128 364.085,161.128Z" transform="translate(-651.753 -150.647) scale(2.34738)"/><path fill="#fff" d="M223.951,208.853C224.09,209.035 223.929,208.396 223.931,208.168C223.937,207.645 223.963,207.122 223.985,206.6C224.058,204.877 224.204,203.151 224.488,201.45C225.266,196.775 227.085,192.556 228.824,188.184C230.872,183.035 232.182,177.579 232.81,172.074C233.34,167.429 233.34,162.686 234.689,158.167C236.419,152.375 240.152,146.921 244.293,142.583C247.037,139.708 250.268,137.319 253.591,135.16C254.399,134.635 256.246,133.095 257.328,133.441C258.003,133.657 256.48,135.046 256.314,135.201C254.468,136.931 252.362,138.391 250.452,140.051C245.579,144.287 241.007,148.919 237.48,154.36C234.997,158.191 232.965,162.432 231.963,166.902C230.568,173.125 230.812,179.558 229.793,185.838C228.715,192.472 225.925,198.834 225.393,205.549C225.336,206.268 223.951,208.853 223.951,208.853Z" transform="translate(-19.115 17.39)"/></g><path fill="#7699f5" d="M208.72,213.495C208.722,213.494 208.721,213.494 208.722,213.497C208.722,213.498 208.72,213.495 208.72,213.495Z" transform="translate(-45.078 -7.962)"/><path fill="#1048dd" d="M202.373,226.553C202.09,225.596 204.644,214.698 207.601,220.537C211.218,227.681 213.856,211.717 214.446,212.042C217.165,213.54 215.6,217.546 217.738,219.502C219.108,220.755 220.71,216.355 223.057,216.64C226.641,217.075 232.196,226.56 230.482,227.578C227.243,229.501 211.692,226.592 207.947,227.049C206.81,227.188 202.883,228.28 202.373,226.553Z" transform="matrix(2.51672 0 0 .76227 -353.876 46.704)"/><path fill="#171e93" fill-opacity=".99" d="M112.193,102.595C115.9,105.398 118.296,109.843 118.296,114.843C118.296,123.314 111.419,130.19 102.949,130.19C94.479,130.19 87.602,123.314 87.602,114.843C87.602,109.638 90.199,105.035 94.167,102.259C94.007,101.575 93.922,100.863 93.922,100.13C93.922,94.997 98.089,90.829 103.223,90.829C108.356,90.829 112.524,94.997 112.524,100.13C112.524,100.984 112.409,101.81 112.193,102.595Z" transform="matrix(1.40756 0 0 .9775 -56.517 -13.995)"/><g transform="matrix(.9634 0 0 .96934 -42.667 -21.78)"><path fill="#d6defb" fill-opacity=".99" d="M151.82,149.625C154.733,149.625 157.218,151.719 157.695,154.574C160.563,171.745 169.91,227.708 169.91,227.708L114.865,227.708C109.652,227.708 104.727,225.333 101.5,221.265C98.273,217.196 97.1,211.882 98.316,206.845C102.664,188.843 108.615,164.204 111.041,154.162C111.683,151.501 114.078,149.625 116.831,149.625C125.307,149.625 143.093,149.625 151.82,149.625Z"/><clipPath id="a"><path d="M151.82,149.625C154.733,149.625 157.218,151.719 157.695,154.574C160.563,171.745 169.91,227.708 169.91,227.708L114.865,227.708C109.652,227.708 104.727,225.333 101.5,221.265C98.273,217.196 97.1,211.882 98.316,206.845C102.664,188.843 108.615,164.204 111.041,154.162C111.683,151.501 114.078,149.625 116.831,149.625C125.307,149.625 143.093,149.625 151.82,149.625Z"/></clipPath><g clip-path="url(#a)"><path fill-opacity=".2" d="M68.082,128.38C68.216,128.38 68.331,128.551 68.349,128.781C68.785,134.148 73.46,191.664 73.961,197.828C73.972,197.962 73.949,198.098 73.897,198.201C73.845,198.304 73.771,198.362 73.692,198.362L50.323,198.362L50.323,128.38L68.082,128.38Z" transform="matrix(1.58101 .52688 -.30401 .91225 55.507 5.996)"/></g></g><path fill="#152f7e" d="M98.705,205.92C102.361,205.92 105.325,212.572 105.325,220.776C105.325,220.778 105.325,220.779 105.325,220.78C105.325,228.985 102.361,235.636 98.705,235.636C91.486,235.636 79.964,235.636 72.477,235.636C68.431,235.636 65.151,228.275 65.151,219.195C65.151,212.329 65.151,205.92 65.151,205.92L98.705,205.92Z" transform="matrix(2.07291 0 0 .92366 -83.617 -8.136)"/><path fill="#152f7e" d="M85.404,205.92C96.406,205.92 105.325,212.572 105.325,220.777C105.325,220.778 105.325,220.779 105.325,220.78C105.325,228.985 96.406,235.636 85.404,235.636C75.306,235.636 65.151,235.636 65.151,235.636L65.151,205.92L85.404,205.92Z" transform="matrix(0 -.65881 .88336 0 -73.335 252.33)"/><path fill-opacity=".2" d="M98.866,228.171C98.826,228.084 100.164,227.599 100.291,227.538C101.212,227.1 102.054,226.453 102.831,225.801C104.248,224.611 105.322,223.023 106.43,221.555C106.581,221.355 107.346,219.993 107.667,220.079C107.837,220.125 107.68,220.982 107.672,221.091C107.594,222.16 107.689,223.241 107.783,224.307C107.868,225.271 108.042,226.201 108.291,227.134C108.389,227.498 108.705,228.141 108.133,228.141C107.562,228.141 98.866,228.171 98.866,228.171Z" transform="matrix(.70212 0 0 .79702 33.245 27.786)"/><g transform="matrix(.9634 0 0 1.2327 -41.505 -58.883)"><path fill="#fac4af" fill-opacity=".99" d="M141.902,135.361L141.902,149.11C141.902,152.494 138.392,155.238 134.061,155.238C134.061,155.238 134.06,155.238 134.06,155.238C129.729,155.238 126.219,152.494 126.219,149.11C126.219,143.27 126.219,135.361 126.219,135.361L141.902,135.361Z"/><clipPath id="b"><path d="M141.902,135.361L141.902,149.11C141.902,152.494 138.392,155.238 134.061,155.238C134.061,155.238 134.06,155.238 134.06,155.238C129.729,155.238 126.219,152.494 126.219,149.11C126.219,143.27 126.219,135.361 126.219,135.361L141.902,135.361Z"/></clipPath><g clip-path="url(#b)"><path fill="#f38796" fill-opacity=".99" d="M141.902,135.361L141.902,154.93C141.902,155.1 141.767,155.238 141.601,155.238L126.67,155.238C126.421,155.238 126.219,155.031 126.219,154.777L126.219,135.361L141.902,135.361Z" transform="matrix(1.37481 0 0 1.05307 -49.484 -18.177)"/></g></g><path fill="#fac4af" fill-opacity=".99" d="M154.967,108.677L154.967,130.289C154.967,134.059 153.429,137.675 150.693,140.341C147.957,143.007 144.246,144.504 140.376,144.504L140.375,144.504C136.506,144.504 132.795,143.007 130.059,140.341C127.322,137.675 125.785,134.059 125.785,130.289L125.785,108.677L154.967,108.677Z" transform="matrix(.90582 0 0 .92973 -35.007 -15)"/><path fill="#f38796" d="M129.234,99.765C129.412,99.41 129.775,99.186 130.172,99.186C130.569,99.186 130.931,99.41 131.109,99.765C131.577,100.7 132.135,101.817 132.575,102.697C132.737,103.022 132.72,103.408 132.529,103.717C132.338,104.026 132.001,104.214 131.638,104.214C130.729,104.214 129.614,104.214 128.705,104.214C128.342,104.214 128.005,104.026 127.814,103.717C127.623,103.408 127.606,103.022 127.768,102.697C128.208,101.817 128.767,100.7 129.234,99.765Z" transform="translate(-13.643 23.953) scale(.8258)"/><path fill="#171e93" fill-opacity=".99" d="M76.932,100.929C75.48,102.989 72.797,104.372 69.731,104.372C65.122,104.372 61.381,101.249 61.381,97.402C61.381,93.555 65.122,90.431 69.731,90.431C70.005,90.431 70.276,90.442 70.544,90.464C70.974,88.631 72.048,86.932 73.653,85.592C75.779,83.817 78.662,82.82 81.669,82.82L87.027,82.82C93.576,82.82 98.885,87.253 98.885,92.72C98.885,97.254 94.483,100.929 89.053,100.929L76.932,100.929Z" transform="matrix(.9634 0 0 1.15396 12.335 -22.044)"/><path fill="#fac4af" fill-opacity=".99" d="M128.563,122.009L128.563,129.319L126.393,129.319C123.554,129.319 121.253,127.683 121.253,125.665C121.253,125.664 121.253,125.664 121.253,125.663C121.253,123.645 123.554,122.009 126.393,122.009C127.61,122.009 128.563,122.009 128.563,122.009Z" transform="matrix(.68472 0 0 .9634 -9.098 -19.127)"/><path fill="#f38796" fill-opacity=".99" d="M128.563,122.009L128.563,129.319L127.041,129.319C123.844,129.319 121.253,127.684 121.253,125.666C121.253,125.665 121.253,125.663 121.253,125.662C121.253,123.644 123.844,122.009 127.041,122.009C127.932,122.009 128.563,122.009 128.563,122.009Z" transform="matrix(.46817 0 0 .74185 18.742 8.63)"/><g transform="translate(-48.828 -6.693)"><path fill="#4877f2" d="M213.845,166.247C213.984,166.247 214.116,166.302 214.214,166.4C214.312,166.498 214.367,166.631 214.367,166.769L214.367,228.112C214.367,228.25 214.312,228.383 214.214,228.481C214.116,228.579 213.984,228.634 213.845,228.634L103.091,228.634C102.953,228.634 102.82,228.579 102.722,228.481C102.624,228.383 102.569,228.25 102.569,228.112L102.569,166.769C102.569,166.631 102.624,166.498 102.722,166.4C102.82,166.302 102.953,166.247 103.091,166.247L213.845,166.247Z" transform="translate(-2.478 -1.25)"/><path fill="#fbfafe" fill-opacity=".99" d="M181.481,51.802C185.316,51.802 188.425,88.413 188.425,133.575C188.425,133.597 188.425,133.619 188.425,133.64C188.425,178.802 185.316,215.413 181.481,215.414C166.346,215.414 130.529,215.414 115.393,215.414C111.558,215.413 108.449,178.802 108.449,133.64C108.449,133.619 108.449,133.597 108.449,133.575C108.449,88.413 111.558,51.802 115.393,51.802C130.529,51.802 166.346,51.802 181.481,51.802Z" transform="matrix(.356 0 0 .03023 116.895 172.982)"/><circle cx="142.846" cy="132.255" r="4.044" fill="#fbfafe" fill-opacity=".99" transform="translate(-10.732 34.635) scale(1.09126)"/><path fill="#fbfafe" fill-opacity=".99" d="M184.038,51.802C185.202,51.802 186.318,60.417 187.14,75.753C187.963,91.088 188.425,111.888 188.425,133.575C188.425,133.597 188.425,133.619 188.425,133.64C188.425,155.328 187.963,176.127 187.14,191.463C186.318,206.798 185.202,215.414 184.038,215.414C170.08,215.414 126.795,215.414 112.836,215.414C111.673,215.414 110.557,206.798 109.734,191.463C108.911,176.127 108.449,155.328 108.449,133.64C108.449,133.619 108.449,133.597 108.449,133.575C108.449,111.888 108.911,91.088 109.734,75.753C110.557,60.417 111.673,51.802 112.836,51.802C126.795,51.802 170.08,51.802 184.038,51.802Z" transform="matrix(.56347 0 0 .03023 94.394 181.807)"/><path fill="#fbfafe" fill-opacity=".99" d="M184.038,51.802C185.202,51.802 186.318,60.417 187.14,75.753C187.963,91.088 188.425,111.888 188.425,133.575C188.425,133.597 188.425,133.619 188.425,133.64C188.425,155.328 187.963,176.127 187.14,191.463C186.318,206.798 185.202,215.414 184.038,215.414C170.08,215.414 126.795,215.414 112.836,215.414C111.673,215.414 110.557,206.798 109.734,191.463C108.911,176.127 108.449,155.328 108.449,133.64C108.449,133.619 108.449,133.597 108.449,133.575C108.449,111.888 108.911,91.088 109.734,75.753C110.557,60.417 111.673,51.802 112.836,51.802C126.795,51.802 170.08,51.802 184.038,51.802Z" transform="matrix(.56347 0 0 .03023 94.394 192.131)"/><path fill="#fbfafe" d="M213.537,166.247C213.757,166.247 213.968,166.294 214.124,166.377C214.28,166.461 214.367,166.573 214.367,166.691L214.367,228.19C214.367,228.308 214.28,228.421 214.124,228.504C213.968,228.587 213.757,228.634 213.537,228.634L103.4,228.634C103.179,228.634 102.968,228.587 102.812,228.504C102.657,228.421 102.569,228.308 102.569,228.19L102.569,166.691C102.569,166.573 102.657,166.461 102.812,166.377C102.968,166.294 103.179,166.247 103.4,166.247L213.537,166.247Z" transform="matrix(.25318 0 0 .47357 82.708 91.391)"/><path fill="#fbfafe" d="M214.119,166.247C214.185,166.247 214.248,166.323 214.295,166.457C214.341,166.592 214.367,166.774 214.367,166.964L214.367,227.917C214.367,228.107 214.341,228.289 214.295,228.424C214.248,228.558 214.185,228.634 214.119,228.634C208.474,228.634 108.463,228.634 102.818,228.634C102.752,228.634 102.688,228.558 102.642,228.424C102.595,228.289 102.569,228.107 102.569,227.917L102.569,166.964C102.569,166.774 102.595,166.592 102.642,166.457C102.688,166.323 102.752,166.247 102.818,166.247C108.463,166.247 208.474,166.247 214.119,166.247Z" transform="matrix(.84642 0 0 .2932 21.859 155.225)"/></g><path fill="#d6defb" d="M98.504,205.92C102.271,205.92 105.325,212.572 105.325,220.778C105.325,220.778 105.325,220.779 105.325,220.779C105.325,228.985 102.271,235.636 98.504,235.636C91.107,235.636 79.369,235.636 71.972,235.636C68.205,235.636 65.151,228.985 65.151,220.779C65.151,220.779 65.151,220.778 65.151,220.778C65.151,212.572 68.205,205.92 71.972,205.92C79.369,205.92 91.107,205.92 98.504,205.92Z" transform="matrix(.73841 -1.11388 .5114 .33902 -116.385 167.32)"/><path fill="#d6defb" d="M98.504,205.92C102.271,205.92 105.325,212.572 105.325,220.778C105.325,220.778 105.325,220.779 105.325,220.779C105.325,228.985 102.271,235.636 98.504,235.636C91.107,235.636 79.369,235.636 71.972,235.636C68.205,235.636 65.151,228.985 65.151,220.779C65.151,220.779 65.151,220.778 65.151,220.778C65.151,212.572 68.205,205.92 71.972,205.92C79.369,205.92 91.107,205.92 98.504,205.92Z" transform="matrix(-1.30111 -.30512 .14008 -.59736 201.68 294.38)"/><path fill="#d6defb" d="M97.301,205.92C99.429,205.92 101.47,207.486 102.975,210.272C104.48,213.058 105.325,216.837 105.325,220.778C105.325,220.778 105.325,220.779 105.325,220.779C105.325,224.72 104.48,228.499 102.975,231.285C101.47,234.071 99.429,235.636 97.301,235.636C90.295,235.636 80.181,235.636 73.175,235.636C71.047,235.636 69.006,234.071 67.501,231.285C65.997,228.499 65.151,224.72 65.151,220.779C65.151,220.779 65.151,220.778 65.151,220.778C65.151,216.837 65.997,213.058 67.501,210.272C69.006,207.486 71.047,205.92 73.175,205.92C80.181,205.92 90.295,205.92 97.301,205.92Z" transform="matrix(.98716 .5623 -.30369 .53314 44.477 4.26)"/><path fill="#d6defb" d="M97.301,205.92C99.429,205.92 101.47,207.486 102.975,210.272C104.48,213.058 105.325,216.837 105.325,220.778C105.325,220.778 105.325,220.779 105.325,220.779C105.325,224.72 104.48,228.499 102.975,231.285C101.47,234.071 99.429,235.636 97.301,235.636C90.295,235.636 80.181,235.636 73.175,235.636C71.047,235.636 69.006,234.071 67.501,231.285C65.997,228.499 65.151,224.72 65.151,220.779C65.151,220.779 65.151,220.778 65.151,220.778C65.151,216.837 65.997,213.058 67.501,210.272C69.006,207.486 71.047,205.92 73.175,205.92C80.181,205.92 90.295,205.92 97.301,205.92Z" transform="matrix(.18405 -1.12108 .60546 .0994 -7.133 200.239)"/><g transform="matrix(-.65502 .58108 -.28253 -.31848 189.849 167.827)"><path fill="#f38796" d="M102.729,127.255C108.002,127.255 112.276,136.046 112.276,146.891C112.276,147.464 112.276,148.038 112.276,148.612C112.276,159.52 107.977,168.363 102.673,168.363C102.311,168.363 101.947,168.363 101.585,168.363C96.281,168.363 91.981,159.52 91.981,148.612L91.981,146.891C91.981,136.046 96.256,127.255 101.529,127.255C101.929,127.255 102.329,127.255 102.729,127.255Z"/><clipPath id="c"><path d="M102.729,127.255C108.002,127.255 112.276,136.046 112.276,146.891C112.276,147.464 112.276,148.038 112.276,148.612C112.276,159.52 107.977,168.363 102.673,168.363C102.311,168.363 101.947,168.363 101.585,168.363C96.281,168.363 91.981,159.52 91.981,148.612L91.981,146.891C91.981,136.046 96.256,127.255 101.529,127.255C101.929,127.255 102.329,127.255 102.729,127.255Z"/></clipPath><g clip-path="url(#c)"><path fill="#fac4af" d="M102.729,127.255C108.002,127.255 112.276,136.046 112.276,146.891C112.276,147.464 112.276,148.038 112.276,148.612C112.276,159.52 107.977,168.363 102.673,168.363C102.311,168.363 101.947,168.363 101.585,168.363C96.281,168.363 91.981,159.52 91.981,148.612L91.981,146.891C91.981,136.046 96.256,127.255 101.529,127.255C101.929,127.255 102.329,127.255 102.729,127.255Z" transform="translate(-2.115 -1.11)"/></g></g><g transform="translate(-5.907 8.251)"><g transform="matrix(.77255 .41215 -.2004 .37563 101.6 -1.181)"><path fill="#f38796" d="M102.729,127.255C108.002,127.255 112.276,136.046 112.276,146.891C112.276,147.464 112.276,148.038 112.276,148.612C112.276,159.52 107.977,168.363 102.673,168.363C102.311,168.363 101.947,168.363 101.585,168.363C96.281,168.363 91.981,159.52 91.981,148.612L91.981,146.891C91.981,136.046 96.256,127.255 101.529,127.255C101.929,127.255 102.329,127.255 102.729,127.255Z"/><clipPath id="d"><path d="M102.729,127.255C108.002,127.255 112.276,136.046 112.276,146.891C112.276,147.464 112.276,148.038 112.276,148.612C112.276,159.52 107.977,168.363 102.673,168.363C102.311,168.363 101.947,168.363 101.585,168.363C96.281,168.363 91.981,159.52 91.981,148.612L91.981,146.891C91.981,136.046 96.256,127.255 101.529,127.255C101.929,127.255 102.329,127.255 102.729,127.255Z"/></clipPath><g clip-path="url(#d)"><path fill="#fac4af" d="M102.729,127.255C108.002,127.255 112.276,136.046 112.276,146.891C112.276,147.464 112.276,148.038 112.276,148.612C112.276,159.52 107.977,168.363 102.673,168.363C102.311,168.363 101.947,168.363 101.585,168.363C96.281,168.363 91.981,159.52 91.981,148.612L91.981,146.891C91.981,136.046 96.256,127.255 101.529,127.255C101.929,127.255 102.329,127.255 102.729,127.255Z" transform="translate(-2.115 -1.11)"/></g></g><path fill="#fac4af" d="M107.138,130.532C107.316,130.54 107.472,130.651 107.532,130.813C108.163,132.523 111.704,142.133 114.765,150.438C115.941,153.628 115.619,157.155 113.884,160.098C112.149,163.041 109.173,165.107 105.732,165.759C105.728,165.76 105.725,165.76 105.722,165.761C102.342,166.401 98.842,165.547 96.182,163.433C93.522,161.319 91.981,158.167 91.981,154.84C91.981,149.981 91.981,144.526 91.981,139.757C91.981,136.713 93.411,133.833 95.868,131.926C98.061,130.224 105.553,130.461 107.138,130.532Z" transform="matrix(.29557 -.08482 .08782 .30605 100.572 54.24)"/><path fill="#fac4af" d="M102.132,127.255C104.822,127.255 107.403,128.287 109.305,130.124C111.208,131.961 112.276,134.453 112.276,137.052C112.276,143.556 112.276,152.061 112.276,158.566C112.276,161.164 111.208,163.656 109.305,165.493C107.403,167.331 104.822,168.363 102.132,168.363C102.13,168.363 102.128,168.363 102.126,168.363C99.436,168.363 96.855,167.331 94.953,165.493C93.05,163.656 91.981,161.164 91.981,158.566C91.981,152.061 91.981,143.556 91.981,137.052C91.981,134.453 93.05,131.961 94.953,130.124C96.855,128.287 99.436,127.255 102.126,127.255C102.128,127.255 102.13,127.255 102.132,127.255Z" transform="matrix(.30126 .06163 -.06381 .31194 128.765 31.08)"/><path fill="#fac4af" d="M102.132,127.255C104.822,127.255 107.403,128.287 109.305,130.124C111.208,131.961 112.276,134.453 112.276,137.052C112.276,143.556 112.276,152.061 112.276,158.566C112.276,161.164 111.208,163.656 109.305,165.493C107.403,167.331 104.822,168.363 102.132,168.363C102.13,168.363 102.128,168.363 102.126,168.363C99.436,168.363 96.855,167.331 94.953,165.493C93.05,163.656 91.981,161.164 91.981,158.566C91.981,152.061 91.981,143.556 91.981,137.052C91.981,134.453 93.05,131.961 94.953,130.124C96.855,128.287 99.436,127.255 102.126,127.255C102.128,127.255 102.13,127.255 102.132,127.255Z" transform="matrix(.30126 .06163 -.06381 .31194 132.572 37.555)"/><path fill="#fac4af" d="M102.132,127.255C104.822,127.255 107.403,128.287 109.305,130.124C111.208,131.961 112.276,134.453 112.276,137.052C112.276,143.556 112.276,152.061 112.276,158.566C112.276,161.164 111.208,163.656 109.305,165.493C107.403,167.331 104.822,168.363 102.132,168.363C102.13,168.363 102.128,168.363 102.126,168.363C99.436,168.363 96.855,167.331 94.953,165.493C93.05,163.656 91.981,161.164 91.981,158.566C91.981,152.061 91.981,143.556 91.981,137.052C91.981,134.453 93.05,131.961 94.953,130.124C96.855,128.287 99.436,127.255 102.126,127.255C102.128,127.255 102.13,127.255 102.132,127.255Z" transform="matrix(.2924 .09516 -.09854 .30277 141.185 37.897)"/></g><g transform="translate(100.471 24.281) scale(.36252)"><path fill="#92a1f7" fill-opacity=".99" d="M181.704,51.802C185.416,51.802 188.425,55.535 188.425,60.139C188.425,88.198 188.425,179.017 188.425,207.077C188.425,211.681 185.416,215.414 181.704,215.414C166.627,215.414 130.248,215.414 115.17,215.414C111.458,215.414 108.449,211.681 108.449,207.077C108.449,179.017 108.449,88.198 108.449,60.139C108.449,55.535 111.458,51.802 115.17,51.802C130.248,51.802 166.627,51.802 181.704,51.802Z" transform="matrix(1.27521 0 0 1.02802 -25.737 6.722)"/><path fill="#1d3fab" fill-opacity=".99" d="M181.704,51.802C185.416,51.802 188.425,55.535 188.425,60.139C188.425,88.198 188.425,179.017 188.425,207.077C188.425,211.681 185.416,215.414 181.704,215.414C166.627,215.414 130.248,215.414 115.17,215.414C111.458,215.414 108.449,211.681 108.449,207.077C108.449,179.017 108.449,88.198 108.449,60.139C108.449,55.535 111.458,51.802 115.17,51.802C130.248,51.802 166.627,51.802 181.704,51.802Z" transform="matrix(1.27521 0 0 1.02802 -31.501 6.592)"/><path fill="#d4dcfa" fill-opacity=".99" d="M181.11,51.802C183.05,51.802 184.911,52.721 186.283,54.358C187.655,55.995 188.425,58.215 188.425,60.529C188.425,88.899 188.425,178.317 188.425,206.686C188.425,209.001 187.655,211.221 186.283,212.857C184.911,214.494 183.05,215.414 181.11,215.414C165.893,215.414 130.981,215.414 115.764,215.414C113.824,215.414 111.963,214.494 110.592,212.857C109.22,211.221 108.449,209.001 108.449,206.686C108.449,178.317 108.449,88.899 108.449,60.529C108.449,58.215 109.22,55.995 110.592,54.358C111.963,52.721 113.824,51.802 115.764,51.802C130.981,51.802 165.893,51.802 181.11,51.802Z" transform="matrix(1.17166 0 0 .98207 -16.131 12.73)"/><path fill="#f6f6f6" fill-opacity=".99" d="M181.11,51.802C183.05,51.802 184.911,53.477 186.283,56.457C187.655,59.438 188.425,63.481 188.425,67.696C188.425,98.983 188.425,168.232 188.425,199.52C188.425,203.735 187.655,207.778 186.283,210.758C184.911,213.739 183.05,215.414 181.11,215.414C165.893,215.414 130.981,215.414 115.764,215.414C113.824,215.414 111.963,213.739 110.592,210.758C109.22,207.778 108.449,203.735 108.449,199.52C108.449,168.232 108.449,98.983 108.449,67.696C108.449,63.481 109.22,59.438 110.592,56.457C111.963,53.477 113.824,51.802 115.764,51.802C130.981,51.802 165.893,51.802 181.11,51.802Z" transform="matrix(1.17166 0 0 .53924 -16.131 98.704)"/><path fill="#f6f6f6" fill-opacity=".99" d="M278.398,51.802C282.233,51.802 285.341,88.408 285.341,133.562C285.341,133.593 285.341,133.623 285.341,133.653C285.341,178.808 282.233,215.413 278.398,215.414C263.263,215.414 130.527,215.414 115.392,215.414C111.557,215.413 108.449,178.808 108.449,133.653C108.449,133.623 108.449,133.593 108.449,133.562C108.449,88.408 111.557,51.802 115.392,51.802C130.527,51.802 263.263,51.802 278.398,51.802Z" transform="matrix(.31428 0 0 .02669 82.348 86.876)"/><path fill="#d2daf9" fill-opacity=".99" d="M233.159,51.802C236.994,51.802 240.103,88.413 240.103,133.575C240.103,133.597 240.103,133.619 240.103,133.64C240.103,178.802 236.994,215.413 233.159,215.414C218.024,215.414 130.529,215.414 115.393,215.414C111.558,215.413 108.449,178.802 108.449,133.64C108.449,133.619 108.449,133.597 108.449,133.575C108.449,88.413 111.558,51.802 115.393,51.802C130.529,51.802 218.024,51.802 233.159,51.802Z" transform="matrix(.356 0 0 .03023 95.988 137.766)"/><path fill="#d2daf9" fill-opacity=".99" d="M233.159,51.802C236.994,51.802 240.103,88.413 240.103,133.575C240.103,133.597 240.103,133.619 240.103,133.64C240.103,178.802 236.994,215.413 233.159,215.414C218.024,215.414 130.529,215.414 115.393,215.414C111.558,215.413 108.449,178.802 108.449,133.64C108.449,133.619 108.449,133.597 108.449,133.575C108.449,88.413 111.558,51.802 115.393,51.802C130.529,51.802 218.024,51.802 233.159,51.802Z" transform="matrix(.356 0 0 .03023 95.988 171.418)"/><circle cx="142.846" cy="132.255" r="4.044" fill="#d2daf9" fill-opacity=".99" transform="translate(-31.639 -.58) scale(1.09126)"/><circle cx="142.846" cy="132.255" r="4.044" fill="#d2daf9" fill-opacity=".99" transform="translate(-31.639 33.072) scale(1.09126)"/><path fill="#f6f6f6" fill-opacity=".99" d="M262.223,51.802C265.368,51.802 267.917,88.407 267.917,133.562C267.917,133.593 267.917,133.623 267.917,133.653C267.917,178.808 265.368,215.414 262.223,215.414C247.509,215.414 128.858,215.414 114.144,215.414C110.999,215.414 108.449,178.808 108.449,133.653C108.449,133.623 108.449,133.593 108.449,133.562C108.449,88.407 110.999,51.802 114.144,51.802C128.858,51.802 247.509,51.802 262.223,51.802Z" transform="matrix(.38317 0 0 .02669 74.878 94.667)"/><path fill="#d2daf9" fill-opacity=".99" d="M216.688,51.802C217.851,51.802 218.967,60.417 219.79,75.753C220.613,91.088 221.075,111.888 221.075,133.575C221.075,133.597 221.075,133.619 221.075,133.64C221.075,155.328 220.613,176.127 219.79,191.463C218.967,206.798 217.851,215.414 216.688,215.414C202.729,215.414 126.795,215.414 112.836,215.414C111.673,215.414 110.557,206.798 109.734,191.463C108.911,176.127 108.449,155.328 108.449,133.64C108.449,133.619 108.449,133.597 108.449,133.575C108.449,111.888 108.911,91.088 109.734,75.753C110.557,60.417 111.673,51.802 112.836,51.802C126.795,51.802 202.729,51.802 216.688,51.802Z" transform="matrix(.56347 0 0 .03023 73.488 146.591)"/><path fill="#d2daf9" fill-opacity=".99" d="M216.688,51.802C217.851,51.802 218.967,60.417 219.79,75.753C220.613,91.088 221.075,111.888 221.075,133.575C221.075,133.597 221.075,133.619 221.075,133.64C221.075,155.328 220.613,176.127 219.79,191.463C218.967,206.798 217.851,215.414 216.688,215.414C202.729,215.414 126.795,215.414 112.836,215.414C111.673,215.414 110.557,206.798 109.734,191.463C108.911,176.127 108.449,155.328 108.449,133.64C108.449,133.619 108.449,133.597 108.449,133.575C108.449,111.888 108.911,91.088 109.734,75.753C110.557,60.417 111.673,51.802 112.836,51.802C126.795,51.802 202.729,51.802 216.688,51.802Z" transform="matrix(.56347 0 0 .03023 73.488 180.244)"/><path fill="#f6f6f6" fill-opacity=".99" d="M245.269,51.802C246.433,51.802 247.548,60.416 248.371,75.749C249.194,91.082 249.656,111.878 249.656,133.562C249.656,133.593 249.656,133.623 249.656,133.653C249.656,155.337 249.194,176.134 248.371,191.467C247.548,206.8 246.433,215.414 245.269,215.414C231.311,215.414 126.794,215.414 112.836,215.414C111.672,215.414 110.557,206.8 109.734,191.467C108.911,176.134 108.449,155.337 108.449,133.653C108.449,133.623 108.449,133.593 108.449,133.562C108.449,111.878 108.911,91.082 109.734,75.749C110.557,60.416 111.672,51.802 112.836,51.802C126.794,51.802 231.311,51.802 245.269,51.802Z" transform="matrix(.49744 0 0 .02669 62.484 103.78)"/><path fill="#d2daf9" fill-opacity=".99" d="M216.688,51.802C217.851,51.802 218.967,60.417 219.79,75.753C220.613,91.088 221.075,111.888 221.075,133.575C221.075,133.597 221.075,133.619 221.075,133.64C221.075,155.328 220.613,176.127 219.79,191.463C218.967,206.798 217.851,215.414 216.688,215.414C202.729,215.414 126.795,215.414 112.836,215.414C111.673,215.414 110.557,206.798 109.734,191.463C108.911,176.127 108.449,155.328 108.449,133.64C108.449,133.619 108.449,133.597 108.449,133.575C108.449,111.888 108.911,91.088 109.734,75.753C110.557,60.417 111.673,51.802 112.836,51.802C126.795,51.802 202.729,51.802 216.688,51.802Z" transform="matrix(.56347 0 0 .03023 73.488 156.914)"/><path fill="#d2daf9" fill-opacity=".99" d="M216.688,51.802C217.851,51.802 218.967,60.417 219.79,75.753C220.613,91.088 221.075,111.888 221.075,133.575C221.075,133.597 221.075,133.619 221.075,133.64C221.075,155.328 220.613,176.127 219.79,191.463C218.967,206.798 217.851,215.414 216.688,215.414C202.729,215.414 126.795,215.414 112.836,215.414C111.673,215.414 110.557,206.798 109.734,191.463C108.911,176.127 108.449,155.328 108.449,133.64C108.449,133.619 108.449,133.597 108.449,133.575C108.449,111.888 108.911,91.088 109.734,75.753C110.557,60.417 111.673,51.802 112.836,51.802C126.795,51.802 202.729,51.802 216.688,51.802Z" transform="matrix(.56347 0 0 .03023 73.488 190.567)"/><path fill="#1f41ac" fill-opacity=".99" d="M188.425,51.802L188.425,51.802C188.425,142.162 184.633,215.414 179.954,215.414C164.587,215.414 132.287,215.414 116.92,215.414C112.242,215.414 108.449,142.162 108.449,51.802C108.449,51.802 108.449,51.802 108.449,51.802L188.425,51.802Z" transform="matrix(.7789 0 0 .04033 42.169 61.515)"/><path fill="#d4dcfa" fill-opacity=".99" d="M185.271,51.802C187.013,51.802 188.425,88.391 188.425,133.525C188.425,133.58 188.425,133.635 188.425,133.69C188.425,178.825 187.013,215.414 185.271,215.414C172.463,215.414 124.412,215.414 111.603,215.414C109.861,215.414 108.449,178.825 108.449,133.69C108.449,133.635 108.449,133.58 108.449,133.525C108.449,88.391 109.861,51.802 111.603,51.802C124.412,51.802 172.463,51.802 185.271,51.802Z" transform="matrix(.46164 0 0 .01782 89.263 62.681)"/></g><g transform="matrix(-.02323 .30662 -.3175 -.02405 138.242 147.595)"><path fill="#fac4af" d="M107.138,130.532C107.316,130.54 107.472,130.651 107.532,130.813C108.163,132.523 111.704,142.133 114.765,150.438C115.941,153.628 115.619,157.155 113.884,160.098C112.149,163.041 109.173,165.107 105.732,165.759C105.728,165.76 105.725,165.76 105.722,165.761C102.342,166.401 98.842,165.547 96.182,163.433C93.522,161.319 91.981,158.167 91.981,154.84C91.981,149.981 91.981,144.526 91.981,139.757C91.981,136.713 93.411,133.833 95.868,131.926C98.061,130.224 105.553,130.461 107.138,130.532Z"/></g><g transform="matrix(-.16251 .26104 -.2703 -.16828 149.638 181.184)"><path fill="#fac4af" d="M102.132,127.255C104.822,127.255 107.403,128.287 109.305,130.124C111.208,131.961 112.276,134.453 112.276,137.052C112.276,143.556 112.276,152.061 112.276,158.566C112.276,161.164 111.208,163.656 109.305,165.493C107.403,167.331 104.822,168.363 102.132,168.363C102.13,168.363 102.128,168.363 102.126,168.363C99.436,168.363 96.855,167.331 94.953,165.493C93.05,163.656 91.981,161.164 91.981,158.566C91.981,152.061 91.981,143.556 91.981,137.052C91.981,134.453 93.05,131.961 94.953,130.124C96.855,128.287 99.436,127.255 102.126,127.255C102.128,127.255 102.13,127.255 102.132,127.255Z"/></g><g transform="matrix(-.16251 .26104 -.2703 -.16828 142.762 183.4)"><path fill="#fac4af" d="M102.132,127.255C104.822,127.255 107.403,128.287 109.305,130.124C111.208,131.961 112.276,134.453 112.276,137.052C112.276,143.556 112.276,152.061 112.276,158.566C112.276,161.164 111.208,163.656 109.305,165.493C107.403,167.331 104.822,168.363 102.132,168.363C102.13,168.363 102.128,168.363 102.126,168.363C99.436,168.363 96.855,167.331 94.953,165.493C93.05,163.656 91.981,161.164 91.981,158.566C91.981,152.061 91.981,143.556 91.981,137.052C91.981,134.453 93.05,131.961 94.953,130.124C96.855,128.287 99.436,127.255 102.126,127.255C102.128,127.255 102.13,127.255 102.132,127.255Z"/></g><g transform="matrix(-.19088 .24108 -.24963 -.19765 139.447 191.357)"><path fill="#fac4af" d="M102.132,127.255C104.822,127.255 107.403,128.287 109.305,130.124C111.208,131.961 112.276,134.453 112.276,137.052C112.276,143.556 112.276,152.061 112.276,158.566C112.276,161.164 111.208,163.656 109.305,165.493C107.403,167.331 104.822,168.363 102.132,168.363C102.13,168.363 102.128,168.363 102.126,168.363C99.436,168.363 96.855,167.331 94.953,165.493C93.05,163.656 91.981,161.164 91.981,158.566C91.981,152.061 91.981,143.556 91.981,137.052C91.981,134.453 93.05,131.961 94.953,130.124C96.855,128.287 99.436,127.255 102.126,127.255C102.128,127.255 102.13,127.255 102.132,127.255Z"/></g><g transform="matrix(1.34715 0 0 .07472 -5.8 203.83)"><rect width="153.27" height="13.639" x="26.644" y="212.003" fill="#152f7e" fill-opacity=".99"/></g></g></svg>